<svg xmlns="http://www.w3.org/2000/svg" viewBox="0 0 502 512"><path d="M422 337q-5-15-19-42t-18-41q-5-20-3-48 3-26 11-48 2-6 10.5-17t11.5-17q5-9 2-17-4-11-20-18-9-4-29-8l-34-8q-27-6-40-10-22-7-38-16-2-1-9-6-12-9-18-12-10-6-16-3-9 6-10 36-1 17 1 38 4 41 18 65-50 15-87 53.5T84 307q-8 28-8 53-1 32 13 51 10 13 29 26 11 7 34 20l7 3q45 24 80 31 43 9 86-3 32-8 57.5-31.5T419 402q11-33 3-65zm-245 27q-13 0-15-20t6.5-39 23.5-18q18 1 19 20t-10 38-24 19zm181-115q-4 10-18 21-7 7-23 18l-5 3q-13 10-23.5 11t-25.5-4.5-43-17.5l-14-7-12-5q-15-5-22-9-12-6-17-13-11-15 2-28 8-8 29-19l7-3q19-11 30-14 16-3 34 1 36 10 64 23 45 22 37 43z"/></svg>