<svg xmlns="http://www.w3.org/2000/svg" viewBox="0 0 502 512"><path d="M85 416L21 303q-11-18-11-45t11-45l64-112q11-19 34-31.5T164 57h173q21 0 44 12.5t34 31.5l65 112q10 18 10 44.5T479 303l-64 114q-11 19-34 32.5T337 463H164q-22 0-45-13.5T85 417v-1zm11-32h297v-48H170q1-22 32-34 18-7 66-14l17-3q46-8 68-19 37-18 37-52 0-50-36-68-24-13-74-13h-76q-42 0-64 11-19 9-27 29-6 15-9 45h56q3-21 14.5-29t47.5-8h26q38 0 54 2 19 2 26 8.5t7.5 19.5-20.5 20q-13 5-51 12-50 10-75 19-42 14-65 37-27 29-27 74v11h-1z"/></svg>