<svg xmlns="http://www.w3.org/2000/svg" viewBox="0 0 512 512"><path d="M59 87q-36 15-31 47 3 17 12 30l6 4q6 4 12 4t8.5-9T83 144t28-10q16 0 24 17 5 11 3 27-2 11-9 33-9 29-11 45-3 26 6 46 11 26 29 39 13 9 28 11 11 1 16-2 3-1 7-7t9-11q13-17 21-15 5 1 11 13 6 9 9 13 6 6 13 6 13-1 19.5 6t5.5 16.5-9 16.5q-4 4-13 11l-8 6q-12 9-13 16-22 3-50 12.5T156 454q-10 6-10.5 12t7 9 17.5 0q16-5 51-9t49.5-3.5T315 470q27 7 36 11 5 3 10.5 0t6-9-6.5-11q-10-8-29-19-18-9-24-11t-6-3.5 3.5-5T319 411q16-12 26-22 15-15 25.5-27t13.5-17l1-3q6-13 6-18-1-9-12-13.5t-19-17-4-26.5q5-17 27-30 15-9 26.5-10.5t21 5T450 240q18 5 19-13 0-29-30-38 8-2 19.5-3.5t16-4 8-9.5 0-14-14-10-25.5 0v-1q25-33 12-50-9-12-21.5-6.5T415 110q-2-18-11-29t-17.5-12-9.5 9v11q0 14-1 21-2 12-6 24-7 18-26 39 4-13-4-15t-13.5 2-11.5 17q-9 18-18 24-12 9-30 11l-9 1q-13 3-22 11-5 4-13 14-5 7-8 10t-8 4q-12 2-20-12t-3-35l5-26q4-22 5-31 1-14-4-27-5-16-1-17t12 8q6 8 11 2.5t3-15T205 79t-14-15-5-6.5 6.5-5.5 7-6-4.5-7q-9-7-37-9-32-2-56 7-22 8-34 18-9 8-11 16-2 6 0 12z"/></svg>