<svg xmlns="http://www.w3.org/2000/svg" viewBox="0 0 501 512"><path d="M464 326q-3-6-3.5-15.5T459 300t-3 7q-2 11-7.5 19.5T436 338q-4 2-10 2t-8-.5-6-3.5q-5-5-6-5t-3.5-5.5-2.5-9.5-2.5-8-2.5-8.5 2-7.5 2.5-6.5 1.5-4.5 3.5-1 3-1.5l2.5-7.5q1-9 4-12t2.5-7-1.5-5-3-1q-6 0-7-5t4-7 6.5-6 1-4.5L414 221q-11-8-13-17-3-12 3-21.5t18-11.5q6-1 7-2t1-3.5-1-3.5-4-1.5-3.5-5.5 2.5-6 8.5-5.5 9.5-5 4.5-1.5 0-4 2.5-8q6-12-4-7-4 1-4 3t-3.5 5-5 3.5-7 0-7 1-.5 5 .5 7-2.5 3.5-3 3.5 0 5.5q3 5-5 5-4 0-5.5 2t-3 1.5-5-4-5-4-8.5-.5q-10 1-11.5-.5T365 153t-2 2-1.5 6.5-5 6-7 1.5-8-3.5-3.5-7-3-7-1.5-6 1-5-3.5-4-4.5-.5 0 4-.5 6-4.5 3-5.5 2q-7 5-13 0-4-2-10-2t-7.5-.5-4.5-4-3.5-5.5-.5-10 .5-11 2.5-6q6-10 16.5-12.5T318 102q2 1 3.5 1t5.5-1.5 9.5-2 8.5.5 6-1.5 10.5-2T373 94t7-10.5T390 68q18-18 13-35-2-6-2.5-7t-2.5 3.5-7.5 10T381 47q-10 5-18 1.5T344 55q-7 5-11.5 6.5t-11 1-10-3-5-2.5-6 4.5T295 70q-5 11-14 16t-20 6.5-18.5-1.5-10.5-2.5-7.5 5-4.5 7.5-2.5 10-6 11-5.5 8.5-5 6.5-10 3q-17 1-25-9-4-6-2.5-6.5t3.5-4.5 6.5-5.5 4.5-5.5-1.5-5-5.5-.5-6 0-4.5-3-3.5-4-1-6-2-7.5l-3-3-2 3q-1 2-4.5 4t-4.5 6.5-7 12-6 10-4 5.5q-6 5-15 1-4-1-1 10 1 5 5 6t6.5 6.5 2.5 8-1 5.5 0 5 4.5 4 3.5 3.5-3.5 5-8.5 3.5-8.5-2.5-4-2.5-2 5-4.5 8q-9 9-13.5 10.5t-11 0-11-4.5-5.5-3-5-3q-8-7-4 5 2 7 1 11-3 10-1 11t7 0q10-3 15 5 4 6 1.5 12T60 241q-5 3-6 5t0 7q0 3 1 4t4 1q6 1 9 7.5t0 10.5q-1 2 1 5 6 9 4 28-1 9-4 14.5t-8 9.5l-10 7q-4 3-8 3.5t-7-1-3 .5q0 6 5 14.5T51 374q5 5 7 6t5.5 1 9.5 3.5 8 7.5q5 8 6 26 0 10-1.5 13t-7.5 6-6 4 11.5 3.5 14 2T110 448q21 3 36 17 11 10 12 20 1 5 2 6t5 2 8.5-2 13-6 14-2.5T212 487t12 5.5 10.5.5 7.5-8q5-10 14-13.5t20 .5q13 4 18 13 3 4 9.5 7.5T317 496h7l1-7q0-8 2-11.5t9.5-11.5 13.5-12q12-9 22-9 6 0 8-1 4-2 0-16-4-12 1-23 3-5 9.5-9t12-4.5 8.5-3 5-8.5q3-11 15-17 7-3 12-8.5t10-7.5 9.5-6 4.5-6.5-3-8.5zM235 433q-34 0-62-16.5t-45-45-17-62 17-62 45-45.5 62-17 62.5 17 45 45.5 16.5 62-16.5 62-45 45T235 433z"/></svg>