<svg xmlns="http://www.w3.org/2000/svg" viewBox="0 0 512 512"><path d="M291 108h-1q-26 4-27.5 7t4.5 18l2 6q36-10 61-3 34 9 36 46 1 12-9 28t-23 22-20-8q-1-3-.5-16.5t3-15.5 12-.5T340 190q11-15-7-19-10-2-33 0h-6q-18 0-27 3-17 5-2 18 2 2 11.5.5t12 1.5.5 26l-1 21q-4 45 2 50 3 2 13 1t11-2q3-3 1-28l-1-9q30 4 51.5-12t26-43-10.5-53q-14-22-38-31.5t-52-5.5zm179 97q0-42-21-77t-56-56-77-21q-53 0-94 32.5T168 166q-53 3-89 17.5T43 218l-1 31q4 20 31 32 24 11 62 14 12 1 16 8.5t-1 13.5-16 5q-47-4-71-17-19-11-20-24v23l-1 15q0 14 23 26t47 13q14 1 18.5 8.5t-1 14T112 385q-20-2-40-10-27-11-29-25v43q0 12 8 25 13 18 41 29 35 14 92 14t92-14q28-11 41-29 9-12 9-25v-15q39-3 72-24t52.5-55 19.5-75v-19zm-307 10v9q0 14 2 27-40-2-67-12.5t-27-24 27-24 67-12.5q-2 13-2 27v10zm160 109h-11q-36-1-65-21t-44-52q-11-25-11-52 0-11 2-22l2-11q13-45 53-71t87-18 77 45 27.5 84.5-36 81T323 324z"/></svg>