<svg xmlns="http://www.w3.org/2000/svg" viewBox="0 0 512 512"><path d="M455 164H295q-2 0-3.5-2t-.5-4q4-17 17-28 3-3 7-1 17 10 36 6t31-19.5 10.5-35T377 47t-33.5-15-35 11-19 31 6.5 36q2 4-2 8-17 14-24 40-1 6-7 6H158q-8 0-9-7l-14-74q-1-7-6-11.5T117 67H50q-7 0-12.5 5.5T32 85v3q0 8 5.5 13.5T51 107h43q5 0 5 5l56 288q1 10 10 15 4 2 9 2h28q-12 3-19 13t-5.5 22 10.5 20 21 8 21-8 10.5-20-5.5-22-19-13h151q-11 3-18 13t-6 22 10.5 20 21.5 8 21-8 10.5-20-5.5-22-19-13h31q7 0 12.5-5.5T431 399v-4q0-8-5.5-13.5T412 376H198q-7 0-8-7l-6-27q0-4 2.5-7t6.5-3h235q7 0 11.5-4t6.5-11l26-132q2-8-3.5-14.5T455 164z"/></svg>