<svg xmlns="http://www.w3.org/2000/svg" viewBox="0 0 512 512"><path d="M460 101q-13-3-45-7-42-5-84-8-7-16-25-28-21-15-50-15t-50 15q-18 12-25 29-42 2-84 7-32 4-45 7-14 3-21 14-4 8-4 18l17 161q17 153 18 157v3q1 7 4 10 4 5 13.5 5t13.5-7q1-4 1-12l1-52q0-11 8-18.5t18-7.5q95-2 135.5-2t134.5 2q10 0 18 7.5t8 18.5l1 52q0 8 1 12 4 7 13.5 7t13.5-5q3-3 4-10v-3q1-5 18-157l17-161q0-10-4-18-7-11-21-14zm-23 57q-3 23-17 177l-58-2q-66-1-106-1-64 0-164 3L75 158q-2-15 4-20 4-3 19-5l2-1q84-12 156-12 73 0 157 12l1 1q16 2 20 5 5 5 3 20zm-234 13h83q2 0 3.5 1.5t1.5 3.5v116q0 2-1.5 3.5T286 297h-83q-2 0-3.5-1.5T198 292V176q0-2 1.5-3.5t3.5-1.5zm210 5l-63-10q-2 0-3.5 1t-2.5 3l-13 81q0 2 1 4t3 2l63 10q2 0 3.5-1t2.5-3l13-81q0-2-1-3.5t-3-2.5zm-240 9q-1-2-2.5-3.5t-3.5-.5l-63 10q-2 0-3 2t-1 4l13 81q1 2 2.5 3t3.5 1l63-10q2-1 3-2.5t1-3.5z"/></svg>