<svg xmlns="http://www.w3.org/2000/svg" viewBox="0 0 512 512"><path d="M379 429q-44 39-123 39t-123-39q-6-5-11-16-3-7-7-23-12-39-25-59l-11-16q-11-17-15-24-5-11-2.5-20.5T77 249q2-2 2-4 5-79 42-130 48-68 143-68l12 1q12 1 17.5 2t1 11.5T284 77q-2 1-5 1-32-4-64 7-36 12-61 43-28 35-37 90-3 10 22 3 19-6 46-8l12-1q10 1 4.5 12.5T188 238l-1 1q-70 8-72 32t69 32q36 4 72 3h1q45 1 81-4 71-8 70-30l1-2 10-25q1-2 4-3t5 1l7 6q13 12 15.5 21.5T448 291q-4 7-15 24l-11 16q-13 20-25 59-5 16-7 23-5 11-11 16zM303 97q0 22 15.5 37.5T356 150t37.5-15.5T409 97t-15.5-37.5T356 44t-37.5 15.5T303 97zm118 86q-5-5-15-6-7-1-21-1h-10q-18-10-36-14-13-4-24-4h-9l-17-6q-17-6-20.5-2.5T262 165q-3 10-5 13-11 14-17 23l-9 15-13 15q-10 14-6 28 2 9 11 19l9 7q10 6 73.5 2t72.5-10.5 16-29.5l6-22 7-9q9-10 13-18 5-10 1-15zm-158 55q-1 7-6.5 7t-6-5-9.5-17l-2-3q-3-4 1.5-7.5T251 214q13 15 12 24zm85 7q-6-3-21 .5t-20 7.5q-3 2-7 1t-5-4 3-7q7-5 22.5-8.5T347 232q7 0 9 4t-1 7-7 2zm31 184q-44 39-123 39t-123-39q-6-5-11-16-3-7-7-23-12-39-25-59l-11-16q-11-17-15-24-5-11-2.5-20.5T77 249q2-2 2-4 5-79 42-130 48-68 143-68l12 1q12 1 17.5 2t1 11.5T284 77q-2 1-5 1-32-4-64 7-36 12-61 43-28 35-37 90-3 10 22 3 19-6 46-8l12-1q10 1 4.5 12.5T188 238l-1 1q-70 8-72 32t69 32q36 4 72 3h1q45 1 81-4 71-8 70-30l1-2 10-25q1-2 4-3t5 1l7 6q13 12 15.5 21.5T448 291q-4 7-15 24l-11 16q-13 20-25 59-5 16-7 23-5 11-11 16zM303 97q0 22 15.5 37.5T356 150t37.5-15.5T409 97t-15.5-37.5T356 44t-37.5 15.5T303 97zm118 86q-5-5-15-6-7-1-21-1h-10q-18-10-36-14-13-4-24-4h-9l-17-6q-17-6-20.5-2.5T262 165q-3 10-5 13-11 14-17 23l-9 15-13 15q-10 14-6 28 2 9 11 19l9 7q10 6 73.5 2t72.5-10.5 16-29.5l6-22 7-9q9-10 13-18 5-10 1-15zm-158 55q-1 7-6.5 7t-6-5-9.5-17l-2-3q-3-4 1.5-7.5T251 214q13 15 12 24zm85 7q-6-3-21 .5t-20 7.5q-3 2-7 1t-5-4 3-7q7-5 22.5-8.5T347 232q7 0 9 4t-1 7-7 2z"/></svg>