<svg xmlns="http://www.w3.org/2000/svg" viewBox="0 0 512 512"><path d="M453 365q-1-3-3-8-2-9-4-13 0-2-1.5-1.5T443 344q0 17-25 31t-68 22-94 8-94-8-68-22-25-31q0-1-1.5-1.5T66 344q-2 4-4 13l-3 8q-2 5-6.5 10.5T48 385q0 19 28 34.5t75.5 24.5 104.5 9 104.5-9 75.5-24.5 28-34.5q0-4-4.5-9.5T453 365zM70 319q4 24 58 40.5T256 376t128-16.5 58-40.5l1-1q0-14-4-22-2-5-8-11l-9-9q-3-6-4-14v-2q-7-51-41-94-19-23-47-38-23-13-48-18-1-4-1-8t-3-5q8-4 10.5-9t2.5-10l-1-4q0-6-9.5-10.5T257 59t-24 4.5T223 74v4q0 5 2.5 10t9.5 9q-2 1-2 4.5t-1 8.5q-26 4-49 17-28 15-48 39-27 34-37 72-3 15 5 24 21 22 80 32 37 6 73 6 13 0 18.5 6.5t0 13T256 326q-70 0-117-15t-47-40q-3 6-10 13t-9 12q-4 8-4 21zm146-125q-5 10-14 15-11 6-21 0-8-4-8.5-12.5t5-17.5 16.5-14 18.5-1.5 7.5 13-4 17.5z"/></svg>