<svg xmlns="http://www.w3.org/2000/svg" viewBox="0 0 500 512"><path d="M457 256q-5-21-20-31-9-7-36-16.5T357 191q-12-6-28-20-9-8-29-28-28-29-43-42-27-21-51-29-30-10-61-2-4-13-15-20.5t-24.5-8T81 48 64 67t-4 25 11 23q-19 23-24 52-4 25 2 57 3 19 13 56 8 27 11 39 4 21 3 35-1 18-6.5 46T65 440q2 18 17 32 20 20 90-1 55-16 113-47 26 5 48-9t28-40q45-33 70-62 31-36 26-57zm-96 86q-6-21-22.5-34t-38-14.5T261 304t-25.5 31.5T233 376t22 34q-52 26-86.5 30T125 427q-7-13 5-33.5t40-45 65-46 72-33.5 59.5-12 31.5 12-2.5 31-34.5 42z"/></svg>