<svg xmlns="http://www.w3.org/2000/svg" viewBox="0 0 501 512"><path d="M383 61H117q-28 0-47.5 19.5T50 128v266q0 28 19.5 47.5T117 461h266q28 0 47.5-19.5T450 394V128q0-28-19.5-47.5T383 61zM283 408q0 10-7 16.5t-16 6.5h-39q-9 0-15.5-6.5T199 408v-39q0-9 6.5-15.5T221 347h39q9 0 16 6.5t7 15.5v39zm125-205q0 22-3 37t-11 24.5-22.5 15T333 288q-18 3-28 4.5t-15.5 4-7 5.5-1.5 8v6h-80v-8q0-19 3-31.5t11-21.5 21.5-14 34-7.5 33-5T322 223t7.5-8 1.5-13v-3q0-8-3.5-12.5t-11-7.5-21-4-33.5-1h-8q-22 0-36.5 1t-23 5-11 11-2.5 19v10h-78v-10q0-22 3-37.5t10.5-26.5 19-17 28.5-9.5 39-5 51-1.5h8q42 0 70.5 3.5t45 12T401 153t7 42v8z"/></svg>