<svg xmlns="http://www.w3.org/2000/svg" viewBox="0 0 502 512"><path d="M101 459q-21 0-36-14.5T50 409V112q0-21 15-36.5T101 60h298q21 0 36 15.5t15 36.5v297q0 21-15 35.5T399 459H101zm227-52q51 0 76-28 21-22 21-56 0-23-7-40-11-25-34-31 15-6 24.5-25t9.5-39q0-36-21.5-56T331 112H172q-44 0-67 22-20 19-20 54 0 19 11 38t26 26q-23 6-35 31-8 18-8 40 0 33 22 56 27 28 77 28h150zm-4-125q20 0 31 10t11 27-11 26-31 9H182q-20 0-31-9t-11-26 11-27 31-10h142zm-7-117q18 0 28.5 8.5T356 199t-11 25.5-32 8.5H189q-20 0-31-9t-11-25q0-34 38-34h132z"/></svg>