<svg xmlns="http://www.w3.org/2000/svg" viewBox="0 0 501 512"><path d="M288 435q0 11-8 19t-19 8h-47q-11 0-18.5-8t-7.5-19v-47q0-11 7.5-18.5T214 362h47q11 0 19 7.5t8 18.5v47zm150-246q0 27-3.5 45t-13 29.5T394 281t-45 10q-22 3-34.5 5.5t-18.5 5-8 6.5-2 10v7h-96v-10q0-22 3.5-37t13-25.5 25.5-17 42-9.5 39.5-6 21-6.5 9.5-9.5 2-15v-4q0-9-4-14.5t-13-9-25-5-41-1.5h-9q-28 0-45 1.5t-26.5 6-13 13T166 198v13H72v-13q0-26 4-44.5T88.5 122t22.5-20.5 34.5-12 46-5.5 62.5-1h9q51 0 84.5 3.5t54 14T430 130t8 50v9z"/></svg>