<svg xmlns="http://www.w3.org/2000/svg" viewBox="0 0 501 512"><path d="M16 222q15-53 54-87 11-10 29-18 10-5 13.5-2t3.5 14v14q1 27 2 40 3 24 24 33 6 3 12.5 1.5t10.5 1 8 8.5q2 4 8 12l4 5 3-2-4-9q-7-12-10-19-5-12-2-19.5t15-12.5q17-7 17-28 0-26 3-39 7-26 29-38t50-4q9 2 28 10l17 6 12 3 7 2q-1-4-3-10-3-9-2-13 0-7 8-10.5t13.5.5T381 81q9-3 12-10t2-17q0-2-1.5-7t-1.5-7q3-13 9-15 18-8 39.5-1.5t33 22.5 10 38-14.5 36q-10 10-33 17-12 4-17-15-4-13-8.5-16t-12.5 0l-1 9q-1 13-3.5 16t-15.5 1l-9-1 6 15q15 32 6 69-4 18-18 28-11 8-32 12l-17 4q-16 3-16 20 0 22-21 23-6 0-9 3.5t0 9.5q4 10-5 18-6 5-7 9t5.5 9 5.5 9-5 8l-6 6 3 4q4 5 6 7 7 7 8.5 14.5T269 414q-11 13-11 28 0 11 6.5 28t7.5 22.5-4.5 7T244 501h-26q-9 0-11-4.5t3.5-12.5 14.5-8q6 0 18 4-3-9-11-15-5-4-16-8l-7-3 8-16q-4-3-13-8-15-8-18-14-6-10 5-26l-5-2q-7-4-7-6t4-8l3-5 11-26-14-2q-37-6-48-40l-1-1q0-3-1-3-10-6-11-14-1-5 4-16l2-8q1-4 6-12l2-5q-40-28-77-9-13 7-28 10-3 1-10-2l-5-1v-18zm136 71q2 20 25 28 17 6 27-9 3-4 12-9l3-2q6-4 6-8t-5-7q-12-8-37-23l-15-9q-2 6-1.5 16.5T165 285q-2 6-13 8zM38 206q0 1 1 3 1 4 2 5t4 .5 4-1.5q32-22 44-61 0-1-.5-4t-2-3.5-4-.5-4.5 1q-29 20-44 61zm195 27q-7-9-10-14l-3 4q-5 6-5 9.5t4 12.5l3 6z"/></svg>