<svg xmlns="http://www.w3.org/2000/svg" viewBox="0 0 501 512"><path d="M214 506q-28-26-39-44-15-27-11-57l-41 10-2-5 33-47q-12-6-26-3-8 2-24 10l-2 1q-13-14-28.5-15T35 366l-4 2q-11 5-19 7l2-4q1-5 3-8 28-49 77-75l10-4q15-6 15 9-1 28 19 36 5 3 16 4l7 2 2-6-12-7-6-3q-8-3-8-5-1-5 2-6.5t9-1.5h4l4-3-5-2q-7-4-10-6t-8-8l-3-3 14-4 5 1 2-18q4-31 5-46 0-5-4-16-3-7-3-10l-1-4q-6-25-7-38-1-10 4.5-14t15.5-1q5 2 15 7 12 5 18 7 14 3 34 4 3 0 7-2.5t4-4.5q0-9-5-18-2-2-8-6l-5-3q-15-13-19-32t4.5-36.5 26-27T269 17q21 4 34 18t15 35q2 18-9.5 35.5T280 128q-8 3-11 8t-1 10q2 4 8.5 6t10.5 1q11-2 31-10l16-6q7-3 11-3 7-1 11.5 2t2.5 10l-12 60q-2 10-1 19l5 55h3q4-1 6.5-.5t6.5 2.5l4 2-2 3q-3 6-6 7.5t-11 4.5l-6 2v4h3q5 0 7 1.5t6 5.5l3 2-3 3q-5 4-7 4l-6 1q-5 0-7.5 1.5T338 330q14 7 27-1.5t17-25.5l4-21 8 2q12 4 17 7 45 24 72 71 3 4 4 8l1 6q-8-3-22-9-22-11-33-11-19-2-35 15-15-9-24-11-15-3-28 2l34 49q-8 3-17 1-5-1-16-5l-10-4q3 31-12 58-11 21-38 45-8-22-15.5-29t-21.5-6.5-21.5 7.5-14.5 28zm14-204q-2-10-18-20.5t-26-8.5q-2 0-4 3l-2 1 2 3q2 4 4 5l36 15zm44 1q4-2 11-5l37-14q1-1 2-3.5t0-4.5-6-3q-10-2-25.5 8.5T272 303zm-76-132q-6-2-16-6l-16-7 8 36zm111-1q4 4 11 12l11 12 8-35zm-41 153l-16-16-4 4q-6 7-6 10.5t6 10.5l4 5z"/></svg>