<svg xmlns="http://www.w3.org/2000/svg" viewBox="0 0 512 512"><path d="M393 172H119q-6 0-10.5 4.5T104 187l19 259q1 7 6.5 11t15.5 4h222q9 0 15-4t7-11l19-259q0-6-4.5-10.5T393 172zM176 430q-5 0-9-4.5t-4-10.5l-13-197q0-7 4.5-11t10.5-4 10.5 4 4.5 11l10 197q0 6-4 10.5t-10 4.5zm93-15q0 6-3.5 10.5t-9 4.5-9.5-4.5-4-10.5l-2-197q0-7 4.5-11t10.5-4 10.5 4 4.5 11zm80 0q0 6-4 10.5t-9 4.5q-6 0-10-4.5t-4-10.5l10-197q0-9 7.5-13.5t15 0T362 218zm52-310l-92-15q-6-1-7-7l-4-17q-3-11-7-13t-12-2h-46q-8 0-12 1-5 4-7 14l-4 17q-1 6-7 7l-92 15q-9 2-15.5 8T89 128v14q0 4 3 7.5t8 3.5h312q5 0 8-3.5t3-7.5v-14q0-9-6.5-15t-15.5-8z"/></svg>