<svg xmlns="http://www.w3.org/2000/svg" viewBox="0 0 512 512"><path d="M420 132q-7-4-26.5-10T368 112h-2q-21-11-32-13-19-3-44 7-37 16-58.5 35.5T199 188l-4 12-3 11q-1 0-3 1-8 7-44 20-16 5-20 7-10 6-23 25-4 7-10 23l-4 9q-3 9-12 15-6 4-6 8 0 7 9.5 7t16.5-7 14-29q5-13 7-17 11-19 32-18 9 1 16.5 7t10.5 13q2 4 4 14 5 25 12 33 18 21 49 17 19-2 33 5.5t9.5 16.5-31.5 9h-12q-2-6-6-10l-3-3q-11-7-25-8t-27 2q4-6 3-16t-7-15q-13-13-39-12.5T99 321q-5 6-5 16.5t4 15.5q-15-2-29 1-18 5-23 17-3 6-2 19 2 10 15 17t29.5 6.5 29-7.5 13.5-17q1-15-4-22 15 3 30-1-2 4-2 17v2q1 11 15 18.5t33.5 6.5 31.5-12l2-3q2-4 3-10 5 1 18 1t24-3.5 15.5-10T302 353q0-8-3-23t-2-18q9-5 25-2 10 2 28 8 10 4 13 4 25 3 55-12 17-9 25-16l5-5q19-22 20-61 1-31-11.5-57T420 132zM87 394q-10 0-20-4-13-4-13-13t13-13q10-3 20-3t20 3q13 4 13 13t-13 13q-10 4-20 4zm51-46q-10 0-20-3-13-4-13-13t13-13q10-4 20.5-4t19.5 4q13 4 13 13t-13 13q-10 3-20 3zm60 42q-10 0-20-3-13-5-13-14t13-13q10-3 20-3t20 3q13 4 13 13t-13 14q-10 3-20 3zm99-92q-2-20-10-39-9-21-23-32-11-9-25-14-11-4-21.5-5t-13 0-2.5-.5 3-4.5 9-5.5 14-3.5q20-2 37 5 20 8 32.5 27.5t12 41.5-12.5 30z"/></svg>