<svg xmlns="http://www.w3.org/2000/svg" viewBox="0 0 512 512"><path d="M161 227h-50q-4 0-4-5v-50q0-4-3-6.5t-7-2.5H74q-4 0-7 2.5t-3 6.5v50q0 5-5 5H10q-4 0-7 2.5T0 236v24q0 4 3 6.5t7 2.5h49q2 0 3.5 1.5T64 274v50q0 4 3 6.5t7 2.5h23q4 0 7-2.5t3-6.5v-50q0-5 4-5h50q4 0 7-2.5t3-6.5v-24q0-4-3-6.5t-7-2.5zm195 149q-16-28-47-74-2-3-5-5-1-1-1-2t1-1q22-11 36-31t14-43-11.5-42.5T312 147t-41.5-11-42 11-30.5 30.5-11 42.5 14 43 35 31q1 0 1 1v1q-3 3-5 6-32 47-48 74-6 11-6 18 0 16 27 26.5t65.5 10.5 65.5-10.5 27-26.5q0-7-7-18zm147 0q-16-28-47-74-3-3-5-6-1 0-1-1t1-1q22-11 35.5-31t13.5-44-12.5-44.5-34-31T408 136t-42 17q-3 3-3.5 6t.5 6q15 25 15 54-1 25-13 48-2 5-1 10t6 9q6 4 13 8 1 0 1 1v1q-3 3-5 6l-16 23q-5 8 0 16l14 23q10 17 10 30t-8 24q-2 3-.5 6.5t5.5 4.5q16 2 33 2 38 0 65.5-10.5T510 394q-1-7-7-18z"/></svg>