<svg xmlns="http://www.w3.org/2000/svg" viewBox="0 0 512 512"><path d="M421 197l-6-1q-55-10-99-31-58-26-75-62-5-10-13-29-9-21-14-29-8-13-19-19-7-5-17-7l-5-1q-2 0-2 1-26-1-52.5 25.5t-48 73-32 103.5T31 329.5 49 415t39 43q0 1 2 1l6 1q9 2 18 0 12-2 24-11 7-5 23-22 14-14 23-22 29-27 93-31 48-3 104 8l5 1q32 6 59-17t34.5-61.5-9.5-70-49-37.5zm-232 53q-9 47-23.5 85.5t-30.5 60-31 18.5q-17-3-27.5-29.5t-11.5-68 8-88.5 25-85.5 35-59T170 66q14 3 21.5 28.5t7 66.5-9.5 89zm-38-64q-21 3-36 15.5T96.5 232t6 35.5T131 295q8 4 16 .5t10-12.5q5-18 9-37.5t6-38.5q1-10-5.5-16t-15.5-5zm204 217q-15 4-31 2l-27-4q-4 0-6 4l-14 25q-2 4-5 7l-24 33q-2 2-1.5 5t3.5 5l8 4q17 10 38 9l8-1q13 0 23.5-8t14.5-20l19-52q2-4 0-6.5t-6-2.5z"/></svg>