<svg xmlns="http://www.w3.org/2000/svg" viewBox="0 0 512 512"><path d="M226 384q-20-34-57-88-2-4-6-7-1-1-.5-2t1.5-1q26-13 42.5-37t16.5-53q0-41-29.5-70.5T123 96t-70 29.5T24 196q0 29 16.5 53T83 286l.5 1-.5 2q-3 3-6 7-39 57-57 88-7 14-7 22 0 19 32 31.5t78 12.5 78.5-12.5T234 406q0-9-8-22zm266 0q-20-34-57-88-3-4-6-7-1-1-1-2t1-1q26-13 42.5-37t16.5-52-13-51-36.5-36.5-50-13.5-49.5 13.5-36.5 36.5-13.5 51 16.5 52 42.5 37q1 0 1 1v2q-4 3-6 7-38 55-57 88-8 14-8 22 0 19 32.5 31.5T389 450t78-12.5 32-31.5q0-9-7-22z"/></svg>