<svg xmlns="http://www.w3.org/2000/svg" viewBox="0 0 512 512"><path d="M510 315q-3-35-15-54.5T459 238q-15-41-45.5-72.5T342 117q-2-1-2-3t2-3q24-10 37.5-26.5T393 47q0-25-20-44-2-2-4.5-.5T367 6q7 12 7 25 0 17-11 31-10 11-29 22-27 14-57 11-10-1-21-1-69 0-126 42-54 40-77 102-24 3-36 22.5T2 315q-7 76 53 79 19 36 57 59t85 27q4 1 5 4 7 13 22 13h51q10 0 17.5-7.5t7.5-18-7.5-18T275 446h-51q-14 0-21 13-2 3-7 3-37-5-67-23.5T82 392l4-2q5-1 9-22.5t4-51-3.5-50.5-8.5-24q22-79 110-101 21-5 39-2 21 3 32 16 8 9 7 26 0 12-5 22-2 5 2 8.5t8 1.5q16-9 25.5-23t9.5-29q0-7-2-13t3-10 11-2q35 15 60.5 42.5T424 242q-3 5-5 25.5t-2 47.5q0 48 5 68 1 3 3 5v1q2 2 5 3 6 2 22 2 65 0 58-79zm-211 73h-85q-4 0-5.5 3t-.5 6q5 11 18.5 18.5t30 7.5 29.5-7.5 19-18.5q1-3-1-6t-5-3zm-141-74q0 13 9 21.5t21 8.5 20.5-8.5 8.5-21-8.5-21T188 285t-21 8.5-9 20.5zm138 0q0 13 8.5 21.5T325 344t20.5-8.5 8.5-21-8.5-21T325 285t-20.5 8.5T296 314z"/></svg>