<svg xmlns="http://www.w3.org/2000/svg" viewBox="0 0 512 512"><path d="M330 158q-45 0-82.5 22T188 240t-22 82.5 22 82 59.5 59.5 82 22 82-22 60-59.5 22.5-82-22.5-82.5-60-60-81.5-22zm49 79q10 0 16.5 12t6.5 29-6.5 29-16 12-16.5-12-7-29 7-29 16-12zm-99 0q10 0 16.5 12t6.5 29-6.5 29-16 12-16.5-12-7-29 7-29 16-12zm140 161q-9 16-19 13t-2-17q-13-16-30.5-25.5T330 359t-39.5 9.5T260 395q7 13-2.5 16T239 398q-5-8-4.5-13t5.5-7 12 5q32-50 78-50 49 0 79 48 6-4 10.5-2.5t5 6.5-4.5 13zM0 3h307v38H0V3zm0 71h307v38H0V74zm0 71h150v39H0v-39zm0 72h102v38H0v-38z"/></svg>