<svg xmlns="http://www.w3.org/2000/svg" viewBox="0 0 512 512"><path d="M452 152q4-9 5-23l-1-13-51 16 8-5q10-8 17-17 10-14 12.5-32T439 43q-3-9-6-14l-11 12q-15 14-31 24-22 15-45 22-11 3-57 5-43 2-61 5-31 5-66 22-45 23-72 59-34 46-35 106 0 42 15 80 8 21 25 48 8 12 9 15 2 7 4 22t5 21q3 9 11 9l59 1 21-1q26-1 51-6 35-6 62-19 34-16 54-40 32-37 33-92 1-28-4-48l-2 14q-2 17-7 34-6 23-17 41-13 23-31 37-26 19-60 29-28 7-60 8-23 1-46-2l-18-3-11-12q-12-14-22-31-15-24-23-48-9-29-9-58 1-34 16-65 21-42 63-66 39-22 84.5-21.5T337 154q21 14 37 40 12 19 20 42l6 19 7-2q8-3 15-7 10-6 15-13 9-11 14-31l3-17-22 2q12-16 20-35zM122 283q0 33 16.5 61.5T183 389t61.5 16 61.5-16 44.5-44.5T367 283t-16.5-61-44.5-44.5-61.5-16.5-61.5 16.5-44.5 44.5-16.5 61z"/></svg>