<svg xmlns="http://www.w3.org/2000/svg" viewBox="0 0 512 512"><path d="M474 270l-45-17q-4-1-4-5-2-22-9-42-2-4 1-7l34-36q5-5 5.5-12t-3.5-13q-11-18-26-34-5-5-12-6t-13 3l-40 24q-3 2-6 0-22-16-48-24-3-1-4-5l-7-48q-1-7-6-12t-12-6q-11-1-23-1t-23 1q-7 1-12 6t-6 12l-7 48q-1 4-4 5-26 8-48 24-3 2-6 0l-40-24q-6-4-13-3t-12 6q-15 16-26 34-4 6-3.5 13t5.5 12l34 36q3 3 1 7-7 20-9 42 0 4-4 5l-45 17q-7 3-10.5 9T25 292q3 20 9 39 2 7 8 11t13 3l47-4q4-1 6 3 11 21 28 38 3 2 2 6l-15 48q-2 6 .5 12.5T132 459q19 12 40 20 7 3 14 .5t11-8.5l25-39q2-4 6-3 28 5 56 0 4-1 6 3l25 39q4 6 11 8.5t14-.5q21-8 40-20 6-4 8.5-10.5t.5-12.5l-15-48q-1-4 2-6 17-17 28-38 2-4 6-3l47 4q7 1 13-3t8-11q6-19 9-39 1-7-2.5-13t-10.5-9zm-218 77q-35 0-60-25t-25-60 25-60 60-25 60 25 25 60-25 60-60 25z"/></svg>