<svg xmlns="http://www.w3.org/2000/svg" viewBox="0 0 512 512"><path d="M122 208v-53q0-3-2.5-5.5T113 147H86q-4 0-6.5 2.5T77 155v53q0 3-1.5 4.5T72 214H19q-4 0-6.5 2.5T10 222v28q0 4 2.5 6.5T19 259h53q2 0 3.5 1.5T77 264v53q0 4 2.5 6.5T86 326h27q4 0 6.5-2.5t2.5-6.5v-53q0-2 1.5-3.5t3.5-1.5h53q4 0 6.5-2.5t2.5-6.5v-28q0-3-2.5-5.5T180 214h-53q-2 0-3.5-1.5T122 208zm138 115q-49 11-80 31-36 23-36 54v7q0 9 7 15.5t16 6.5h312q10 0 16.5-6.5T502 415v-7q0-31-37-55-31-19-81-30-13-3-21-12.5t-8-22.5v-3q0-11 9-18 22-15 35-43t13-55q0-37-26-62.5T323 81t-63 25.5-26 62.5q0 27 12.5 54t33.5 43q8 6 8 17v5q0 13-8 23t-20 12z"/></svg>