<svg xmlns="http://www.w3.org/2000/svg" viewBox="0 0 512 512"><path d="M256 37q-60 0-111 30t-80.5 80.5-29.5 111 29.5 111T145 450t111 30 111-30 80.5-80.5 29.5-111-29.5-111T367 67 256 37zm67 107q13 0 22 16t9 39-9 39-22 16-22-16-9-39 9-39 22-16zm-134 0q13 0 22 16t9 39-9 39-21.5 16-22-16-9.5-39 9.5-39 21.5-16zm189 218q-13 21-26 17-6-2-7-8t4-16q-16-21-40.5-33.5T256 309t-52.5 12.5T162 357q5 9 3.5 14.5T159 379q-13 4-26-17-7-11-6.5-18.5t7.5-9.5 17 7q20-31 44-48 29-20 62-20t61 18q26 16 45 47 8-6 14-4t6.5 9.5T378 362z"/></svg>