<svg xmlns="http://www.w3.org/2000/svg" viewBox="0 0 512 512"><path d="M178 205q0 33 23 56t55.5 23 55.5-23 23-55.5-23-55.5-55.5-23-55.5 23-23 55zm249 3q13-17 9.5-37.5T416 138l-3-2q-20-14-21-38l-1-2q-1-20-16.5-34T338 50l-4 1q-23 2-40-15l-2-2q-14-15-35-15t-35 14l-2 3q-17 16-40 14h-4q-21-2-36.5 11.5T122 95v2q-1 24-21 38l-3 2q-18 12-21.5 32.5T86 207h1q7 10 9 21.5T95 251l-1 2q-6 21 4.5 39.5T130 315q5 1 7.5 5.5t.5 8.5L85 450q-1 4 1.5 7.5T93 460l35-9q7-1 13.5 1.5t9.5 8.5l18 32q2 3 6.5 3t5.5-4l52-118q2-6 7-8 16-5 31 1 6 1 8 7l51 118q2 4 6 4t7-3l17-32q4-6 10.5-8.5T383 451l35 9q4 1 7-2.5t1-7.5l-52-121q-2-4-.5-7.5t5.5-4.5l3-1q21-5 32-23t5-39l-1-2q-3-11-1-22.5t9-20.5zM256 333q-35 0-65-17.5T143 268t-18-65.5 18-66 48-48T256.5 71 322 88.5t47.5 47.5 17.5 66q0 26-10 50t-28 42.5-42.5 28.5-50.5 10z"/></svg>