<svg xmlns="http://www.w3.org/2000/svg" viewBox="0 0 512 512"><path d="M256 35q-61 0-112 30t-81 81.5-30 112 30 112 81 81.5 112 30 112-30 81-81.5 30-112-30-112T368 65 256 35zm67 126q13 0 22.5 16.5T355 217t-9.5 39.5T323 273t-22-16.5-9-39.5 9-39.5 22-16.5zm-134 0q13 0 22 16.5t9 39.5-9 39.5-22 16.5-22.5-16.5T157 217t9.5-39.5T189 161zm207 179q-5 8-21 1-20 33-51 52t-68 19-68-19-51-52q-16 7-21-1-3-5 1.5-12t18-15 22.5-9 12 4q5 8-9 20 16 22 41 35.5t54 13.5 54-13.5 41-35.5q-14-12-9-20 3-5 12-4t22.5 9 18 15 1.5 12z"/></svg>