<svg xmlns="http://www.w3.org/2000/svg" viewBox="0 0 512 512"><path d="M497 78L269 28q-10-3-21-1-15 3-25 14L37 241q-17 19-26.5 43.5T1 334v9q0 26 15.5 47.5T57 420l218 75q13 4 25.5.5T321 482l180-222q6-7 4-15-2-10-9-21-4-8-5-13-1-9 2-22l1-4q2-9-1.5-15t-11-7.5-12 2-9.5 11-6 20.5 2 24l5 16q2 5-2 10L299 442q-5 5-11 7t-13 0L73 385q-14-4-22.5-15.5T42 343v-16q-1-15 8-22.5t21-3.5l201 60q3 1 6 1h1q11 0 18-9l210-244q4-5 4-12v-1q0-7-4-12t-10-6zM217 253q-8 8-21.5 12.5t-24 2.5-12.5-10 6.5-17 21.5-13.5 24-2 12.5 10.5-6.5 17zm165-112q-12 14-28 21-18 9-54 16-23 5-33 10-8 4-22 18-4 4-10 2l-6-1q-2-1-2.5-2.5t.5-2.5q12-12 20-18.5t28.5-17T306 149l6-4q13-9 18-14 16-17 14-26-1-5-6.5-9T326 91q-9-2-18 .5T295 98q-2 2-3 7l-1 3q-2 10-6 14-7 8-15 11-9 3-17.5 1t-9.5-9q-2-10 5-18 11-12 42-21t61-2q28 6 36 23 9 19-5 34z"/></svg>