<svg xmlns="http://www.w3.org/2000/svg" viewBox="0 0 512 512"><path d="M435 352H77q-5 0-9 4t-4 9v70q0 5 4 9t9 4h358q5 0 9-4t4-9v-70q0-5-4-9t-9-4zm-291 67q0 5-4 9t-9 4H93q-5 0-9-4t-4-9v-38q0-5 4-9t9-4h38q5 0 9 4t4 9v38zM85 64h54q5 0 9 4t4 9v22q0 5-4 9t-9 4H85q-5 0-9-4t-4-9V77q0-5 4-9t9-4zm96 0h54q5 0 9 4t4 9v22q0 5-4 9t-9 4h-54q-5 0-9-4t-4-9V77q0-5 4-9t9-4zm96 0h54q5 0 9 4t4 9v22q0 5-4 9t-9 4h-54q-5 0-9-4t-4-9V77q0-5 4-9t9-4zm96 0h54q5 0 9 4t4 9v22q0 5-4 9t-9 4h-54q-5 0-9-4t-4-9V77q0-5 4-9t9-4zM85 160h54q5 0 9 4t4 9v22q0 5-4 9t-9 4H85q-5 0-9-4t-4-9v-22q0-5 4-9t9-4zm96 0h54q5 0 9 4t4 9v22q0 5-4 9t-9 4h-54q-5 0-9-4t-4-9v-22q0-5 4-9t9-4zm96 0h54q5 0 9 4t4 9v22q0 5-4 9t-9 4h-54q-5 0-9-4t-4-9v-22q0-5 4-9t9-4zM85 256h54q5 0 9 4t4 9v22q0 5-4 9t-9 4H85q-5 0-9-4t-4-9v-22q0-5 4-9t9-4zm96 0h54q5 0 9 4t4 9v22q0 5-4 9t-9 4h-54q-5 0-9-4t-4-9v-22q0-5 4-9t9-4zm96 0h54q5 0 9 4t4 9v22q0 5-4 9t-9 4h-54q-5 0-9-4t-4-9v-22q0-5 4-9t9-4zm96-96h54q5 0 9 4t4 9v22q0 5-4 9t-9 4h-54q-5 0-9-4t-4-9v-22q0-5 4-9t9-4z"/></svg>