<svg xmlns="http://www.w3.org/2000/svg" viewBox="0 0 512 512"><path d="M147 223q-32 0-53 21t-21 54.5T94 353t53 21q19 0 34-8l-47-47h38l31 30q18-20 18-51 0-33-21-54t-53-21zM449 55h-29q-11 0-18-10L382 9q-6-9-16.5-9T349 9l-20 36q-6 10-17 10h-30q-26 0-44.5 18.5T219 118v28H63q-26 0-44.5 18.5T0 209v185q0 26 18.5 44.5T63 457h35q12 0 18 10l14 36q6 9 16.5 9t16.5-9l14-36q6-10 17-10h36q26 0 44.5-18.5T293 394v-28h156q26 0 44.5-18.5T512 303V118q0-26-18.5-44.5T449 55zM218 402l-15-15q-24 15-56 15-45 0-74.5-29.5t-29.5-74T72.5 224t74.5-30 74.5 30 29.5 74q0 42-27 72l32 32h-38zm257-99q0 11-7.5 18.5T449 329H293v-26h6l22-49h86l21 49h33L366 90l-73 157v-38q0-18-10-33.5T256 152v-34q0-11 7.5-19t18.5-8h36q16 0 24-8 5-5 11-22l6-14q2-4 7-4t6 4l6 14q7 20 12.5 25t23.5 5h35q11 0 18.5 8t7.5 19v185zm-141-78l31-68 30 68h-61z"/></svg>