<svg xmlns="http://www.w3.org/2000/svg" viewBox="0 0 512 512"><path d="M202 80h236q11 0 18.5 7.5T464 106v12q0 11-7.5 18.5T438 144H202q-11 0-18.5-7.5T176 118v-12q0-11 7.5-18.5T202 80zm0 144h236q11 0 18.5 7.5T464 250v12q0 11-7.5 18.5T438 288H202q-11 0-18.5-7.5T176 262v-12q0-11 7.5-18.5T202 224zm0 144h236q11 0 18.5 7.5T464 394v12q0 11-7.5 18.5T438 432H202q-11 0-18.5-7.5T176 406v-12q0-11 7.5-18.5T202 368zM75 64h42q11 0 19 8t8 19v42q0 11-8 19t-19 8H75q-11 0-19-8t-8-19V91q0-11 8-19t19-8zm0 144h42q11 0 19 8t8 19v42q0 11-8 19t-19 8H75q-11 0-19-8t-8-19v-42q0-11 8-19t19-8zm0 144h42q11 0 19 8t8 19v42q0 11-8 19t-19 8H75q-11 0-19-8t-8-19v-42q0-11 8-19t19-8z"/></svg>