<svg xmlns="http://www.w3.org/2000/svg" viewBox="0 0 512 512"><path d="M407 407l-13 4q-2 1-3.5-.5T388 407v-2q0-9 1-13l2-11q5-19 6-31 3-22-2-43 9-21 13-48 5-28 1-49-5-23-20-29-21-8-51 12-19 11-36 30-10-3-20-4-5-1-8-4t-3-8q-1-15-5-30-2-9 5-14 18-13 27.5-33t8.5-42q-1-36-26.5-61.5T219 0q-18 0-35.5 6.5t-30.5 20T133 57t-6 36q1 32 24.5 58t55.5 29q14 1 28-1 3-1 5.5.5t3.5 4.5q2 10 3 21 1 5-2 8.5t-8 4.5q-12 2-24 5-7-7-26-15.5T148 195q-24-4-39 2-21 7-14 42 4 21 23 64l2 4q-4 21-2 43 1 13 6 31l3 11v14q0 2-2 4t-5 1l-12-4q-7-2-10.5 4.5T100 422l27 16q3 2 4 5 0 2-1 3.5t-3 1.5l-14 1q-6 1-7.5 7t3.5 10q2 1 3 1l28 4q4 0 6 3 12 16 40 26 20 7 47 10 17 2 25 2t25-2q26-3 47-10 27-10 39-26 2-3 6-3l28-4q1 0 3-1 5-4 3.5-10t-7.5-7l-14-1q-2 0-3-1.5t0-3.5q1-4 4-5l26-16q6-4 2.5-10.5T407 407zM124 239q4-4 17.5-2t23.5 8 4.5 11-14 15-12.5 14q-3 3-6.5 2t-4.5-5l-5-15q-3-12-4-17-1-8 1-11zm88 196q-10-12-24-21-9-6-33-16l-6-3q-6-2-4-7t12-3q6 1 16 5 15 5 25 11t19 15q7 6 9.5 10t.5 8-6.5 4.5-8.5-3.5zm63 31q-1 12-11 19-6 4-13 0-10-7-11-19.5t10-21.5q3-3 7.5-3t7.5 3q11 9 10 22zm109-234q4 5 3 21-1 13-5 29-1 4-4.5 5t-6.5-1q-4-5-12.5-15t-14-15 3-12.5 21-11.5 15.5 0zm-96 194q2-4 10-10 9-9 19-15t25-11q10-3 16.5-4.5t9.5.5 2 5-4 5l-6 2q-24 10-33 16-14 9-25 21-3 4-7.5 3.5T288 434t0-8z"/></svg>