<svg xmlns="http://www.w3.org/2000/svg" viewBox="0 0 512 512"><path d="M435 64H77q-5 0-9 4t-4 9v70q0 5 4 9t9 4h358q5 0 9-4t4-9V77q0-5-4-9t-9-4zm-291 67q0 5-4 9t-9 4H93q-5 0-9-4t-4-9V93q0-5 4-9t9-4h38q5 0 9 4t4 9v38zm291 77H77q-5 0-9 4t-4 9v70q0 5 4 9t9 4h358q5 0 9-4t4-9v-70q0-5-4-9t-9-4zm-291 67q0 5-4 9t-9 4H93q-5 0-9-4t-4-9v-38q0-5 4-9t9-4h38q5 0 9 4t4 9v38zm291 77H77q-5 0-9 4t-4 9v70q0 5 4 9t9 4h358q5 0 9-4t4-9v-70q0-5-4-9t-9-4zm-291 67q0 5-4 9t-9 4H93q-5 0-9-4t-4-9v-38q0-5 4-9t9-4h38q5 0 9 4t4 9v38z"/></svg>