<svg xmlns="http://www.w3.org/2000/svg" viewBox="0 0 501 512"><path d="M360 245q3 5 7 9 10 11 19 24 10-5 32-2l21 4 11-11v-2q-1-3-5.5-5t-13.5-1q-14 1-26-4-6-2-9-5l-13-8-19-9zm71 0l2-4q4-6 11-10-11-6-14.5-13.5T424 194q-7-22-25-38-14-11-31-18l-15-5-2 2q-4 3-9 4t-11-1q10 29 6 45-2 9-6 11 24 11 39 26 19 23 42 26 11 2 19 0v-1zm-150-77q14-11 22-21 6-7 7-13l1-5q-9-7-19-21-10-15-9-22-4 0-14-5-16-7-25-7-17 1-32 19-2 15-5 23l4 5q5 5 12 9 9 4 21 3 14 0 30-8-7 6-22 10-17 5-32 3-19-3-32-15 2 13 2 17l-2-5 2 5q10 16 27 25 27 15 64 3zm-62-70q1-1 4-2 12-6 21-7 16-1 32 10-12 10-27 10-11 0-22-6zm-30 39l-1-2zm-21 57q-1-2-3-4-3-7-3-17 0-15 6-35-6 2-10.5 1t-8.5-4l-3-2-15 5q-17 7-30 18-18 16-26 38-1 16-5 23.5T56 231q6 4 10 10l3 5 9 1q11 0 22-4 16-7 30-22.5t38-26.5zM60 280q11-2 21-4 23-3 33 2 14-20 26-32l-4-11-20 8-17 12q-5 3-12 4-9 2-18 2-14-2-18 3-2 3-1 5zm259 97q5-36 7.5-51t4-18.5 5-3 7.5-4.5q10-14 9-42 0-16-6-41l-2-8q-4-1-12-7-13-9-25-13-22-8-57-10-36 2-57 10-13 4-25 13-8 6-13 7l-1 8q-6 25-6 41-2 28 9 42 4 5 7 4.5t4.5 3T173 326t8 51q7-5 24-3 13 2 30 7l15 4 15-4q17-5 29-7 18-2 25 3zm-155-24q1 12-5 29-5 11-13 24l-6 10 96 25 7-6q7-7 7-13 0 6 7 13l6 6 97-25-7-10q-7-13-11-25-6-16-7-28-3 7-6 32l-2 13q-21-5-68 4l-8 2-1 9-1-9-9-2q-47-9-68-4l-1-13q-4-24-7-32z"/></svg>