<svg xmlns="http://www.w3.org/2000/svg" viewBox="0 0 501 512"><path d="M250 136l-57 12 13-4q15-5 27-12-13-1-38-3l-23-1h79V88h-17l2-15h15l-1-8-34-2q-38-3-58-5.5t-23 .5q-2 2 0 4l13 8v3l-9 5 7 9-12 18-17 4v16l17 11-3 38 6 25q7 30 12 57 6 12 11 21l4 7-10 7 10 10-2 5q-2 8-2 18 0 14 4 32 4 23 12 45 5 16 5 24.5t-3 15.5q-2 6-6 10l-3 2 7 3q9 3 20 3 16 0 34-5-6-7-11-17l-3-10 4-29q4-32 8-46t0-41q-2-8-1-9.5t5-4.5l4-2-8-14 6-27 3-45q3-46 6-50t3-8l-1-3zm1 0l56 12-13-4q-15-5-27-12 20-2 61-4h-79V88h17l-2-15h-15l2-8 33-2q38-3 58-5.5t23 .5q2 2 0 4l-13 8v3l9 5-7 9 12 18 17 4v16l-17 11 3 38-6 25q-7 30-12 57-9 19-15 28l10 7-10 10 2 5q2 8 2 18 0 14-4 32-4 23-12 45-5 16-5 25 0 12 6 21 3 4 6 6l-7 3q-9 3-20 3-16 0-34-5 6-7 11-17l3-10-4-29q-4-32-8-46t0-41q2-8 1-9.5t-5-4.5l-4-2 8-14-6-27-3-45q-3-46-6-50-5-6-2-10zm-9-61h18v9h-18v-9z"/></svg>