<svg xmlns="http://www.w3.org/2000/svg" viewBox="0 0 501 512"><path d="M357 374q-7 3-15 6-20 8-42 13-32 8-66 11-42 4-85 0-57-5-81-15-19-8-17-19 1-6 11-15l3-3q9-11 29-25l1-12q2-14 7-28 7-19 20-35 16-20 40-34 28-15 66.5-20.5T303 204q48 17 71 60 1-9 2-26 2-25 6-35l1-7q1-8 2-10 5-7 12-23 5-11 9-16 9-12 2 6l-8 22 34-66q-1 14-7 41-7 29-12 38 5-3 14-24v6q0 7-3 15-4 11-12 21-6 8-14 16 12-7 25-21l-3 8q-4 10-10 18-8 11-19 18 8-1 14-2h5l-13 6q-15 8-20 16-2 5-1 8.5t3 5.5l2 2-14-6q-19-8-38-12-28-6-54-7-33 0-61 9-46 14-71 32-12 8-16 14l2-1q33-17 70-25 70-15 148 1 36 7 59 19 20 9 30 22 9 10 11 21 1 8-1 16l-2 6-80 18 29-10q28-11 29-17t-9-16q-14-14-44-22-39-10-102-8-43 1-84 11-31 8-56 20-18 9-23.5 14t-5 10 6.5 5l6 2q85 29 244-3z"/></svg>