<svg xmlns="http://www.w3.org/2000/svg" viewBox="0 0 501 512"><path d="M241 317l10 10 67-71-10-9-6 6-139-133q-11-11-63-31-26-11-50-19l27 54q27 54 30 55l139 132zM113 160l-14-44 45 12 146 137-4 5-7-1-133-126-31-12 13 30 134 127 1 6-5 5zm2-29zm330 244q-2-2-6-3-7 2-11 6h-1q-1 2-1 3 13 27-3 43-8 9-21 9-8 0-20-6l-4 3q-4 4-5 11 2 5 4 7 8 8 29 0 17-6 26.5-15.5T447 405q7-21-2-30zm-55 40q6 3 12.5 3t10.5-4.5 3.5-11T413 390l-2 2 1-1-4-18-9-8-7-2-11 11 11-11-7-12-9-7-7-3-6 6 5-6-7-12-8-8-7-2-8-12-8-8-7-3-31 33 2 7 9 8 12 7 18-19-18 19 3 7 8 8 12 7 3 7 9 8 11 7 3 7 8 8zm-59-136q0-4 5-17.5t8-17.5q-1-4 0-6l-10-9-13 7 13 12q-11 18-11 25-7 1-10 3l-43 45q-1 2-2 8l-1 2q-4 0-20 9l-4 3-12-12-6 14 9 9q0-1 6 0 4-3 17-9t17-6l29-30q11-11 28-30z"/></svg>