<svg xmlns="http://www.w3.org/2000/svg" viewBox="0 0 501 512"><path d="M253 160h-3q-20 1-34 12t-14 29 15 31q13 12 32 16h2q19-4 32-16 15-13 15-30.5t-14-30-31-11.5zm-84 158q10 20 29 44 11 15 35 41l4 4q-2-27-22-52-19-24-46-37zm222 43q-10-8-10-22 0-2 1-4l-6-1q-17 0-34 18-10 11-24 34h-1q-14 23-57 65l-9 9q7-2 49-42l21-20q20-17 53-29l10.5-3.5 7.5-4.5h-1zm-266-26h-5q2 6-1.5 14t-8.5 12l-1 1q0 1 16 7l2 1q34 12 53 28l19 18q44 42 51 45l-10-11q-41-41-55-63l-2-2q-14-23-24-33-16-17-34-17zm140 72q1-1 3-4 24-26 35-41 20-24 29-44-26 13-45 37-21 26-23 52h1zm-95-186q-8 2-14.5 7t-6.5 12 5.5 15.5T167 264t12-14q-6 3-13.5-2.5t-7.5-13 12-13.5zm252-40q-6 1-12 1t-11-1l-1-1q-17-36-28-50-17-22-47-34l-5-1q-55-21-68-34-22 19-73 37-30 10-47 31-11 14-27 48l-2 4q-6 1-12 1t-11-1q1 13 7.5 26t15.5 21q-9 21-9 36-1 12 6 25 3 8 13 23 7 11 10 16 11-1 19 1 6 1 17 7 5 8 18 22l9 10q31 36 45 55 10 13 20 34v2l1-1 1 1v-2q10-21 20-34 16-22 46-56l7-8q14-15 18-23l2-1q16-8 26-8l8 1 9-14q10-17 14-26 7-16 7-28 0-16-9-32 9-8 15.5-21t7.5-26zm-71 122q-2 2-6 8-6 8-8 12t-5.5 12-6.5 12q-12 22-34 45-19 21-41 38-22-17-42.5-39T175 347q-3-4-7-13l-5-11-14-20q-23-39-23-79 0-16 3-30 6-39 45-66 30-20 76-32 46 12 76 32 39 27 45 66 3 14 3 30 0 38-23 79zm-26-52q-3 0-4-1 4 14 13 14 6 0 11.5-8.5T351 240t-6.5-12-14.5-7q13 6 12 14 0 6-5.5 11t-11.5 5zm-74-138h-2q-50 6-81 34-35 32-35 80 0 5 7.5 17t12.5 17q-4-10-4-23 0-23 19-23 9 0 15 14 4 10 4 19.5t-5 16-12.5 6.5-13.5-3q-2 3-2 8 0 18 24 38 4 4 13 10l10 7q28 24 40 65l1 6q4 12 7 18v5l1-2 2 2v-5q3-7 6-21l1-3q11-41 40-64l10-8q9-6 13-10 24-21 24-38 0-5-2-8-6 3-13.5 3t-12.5-6.5-5-16 5-20.5q5-13 14-13 20 0 20 23 0 11-5 23 5-5 12.5-17t7.5-17q0-48-35-80-31-28-81-34zm3 151l-1 117q-4 8-4 20v-1q0-16-5-20-1-10-1-32v-85q-23-9-36-23-17-17-17-38l1-8q6-32 45-42h1q9-3 13.5-3t13.5 3q39 10 45 42 1 3 1 8 0 22-18 39-15 14-38 23z"/></svg>