<svg xmlns="http://www.w3.org/2000/svg" viewBox="0 0 501 512"><path d="M411 229l-3 3q-4 4-4.5 8.5t4.5 8.5q8 5 11-1 1-2 1-6zm19-73q-12 20-25 39-26 40-33 47 3 8 4 33l1 15q4 4 15 1l11-5 11-5q13-7 21-13 13-9 15-16-15-16-20-48-3-23 0-48zm-320 34q6-4 11-9 15-12 32-23 25-15 52-25 34-12 71.5-16t67.5 1q42 7 81 32l-36 54-2-10q-5-13-14-23-13-14-34-20l-2-1q-34-9-56-12-37-4-74 6-47 12-97 47v-1zm47-56l-18 14q-20 18-35 36-20 25-27.5 47.5T71 273q2 15 8 24t12 8q3-1 12-2 28 0 60-9 0 20 7 46 9 30 24 43-47 16-119-5 4-15 1-29-3-9-11-25-13-25-15-40-3-26 12-59 20-42 91-89zm202 75l-4 54-22-1q-25-1-42 1-27 5-72 15l-5 4v15q1 17 5 31 6 19 16 28 9-6 15-13l5-6-13-1-4-6q-4-6-6-14-3-11-1-23 15-7 41-13 34-9 60-7 0 6-2 11l-2 4-11 3q-13 4-21 5-5 6-4.5 13.5t9.5 6.5q11-1 27-16l-10 22 13-9 14-34 12-1q12-1 15-3t2 10l-1 12-28 17v9l24-13-1 13q-2 14-3 17t-25 3-26-3 4-8l6-5-16-1-4 3q-5 4-11 7-9 5-19 7t-17-11q-4-9-6-24l-1-14-8 6 3 14q4 16 9 26 7 14 16.5 15.5T267 368q-9 8-29 21l-18 10-9-8q-10-12-18-28-11-21-16-47-7-32-4-69 31 1 85-8 62-11 101-30zM129 334q-2 4-3 8-2 8 0 13.5t11 2.5q12-3 14-7.5t-1-8.5l-3-4z"/></svg>