<svg xmlns="http://www.w3.org/2000/svg" viewBox="0 0 501 512"><path d="M83 248l12 2q16 3 32 11 22 11 42 28 25 21 44 52 23 36 37 83 2-14-3-40-7-34-23-62-20-35-51-54-38-23-90-20zm103-119q6-2 11-5 13-6 28-7 22-2 43 4 27 8 53 29 30 25 58 67 15-12 39-24 12-5 21-8l-14-19q-18-22-38-40-27-26-53-42-34-20-63-22-35-3-65 18-15 6-22 15-5 7-5 16 1 6 4 13zm70 299q-1 2-.5-4.5T257 408q3-12 7-25 5-16 12-32 9-19 21-37 13-21 30-40 20-21 43-40 26-20 57-37 1 9-1 18-2 7-5 12l-4 4-12 4q-16 5-31 15-23 13-42 32-24 25-42 58-22 38-34 88zM106 264q-28-13-39-3-8 8-6 27 2 14 7 25l7 22q10 27 23 49 19 32 43 50 30 24 66 26.5t36-23.5q1-22-24-61-23-35-56-68t-57-44zm80 169q-6-2-12-3-15-6-29-17-20-16-35-40-20-31-31-73-2-4 2-7.5t9 .5l6 1q9 2 18 8 14 8 28 21 17 17 35 42 20 30 40 70-5 7-19 3-6-2-12-5zm0-298q-8 17-20 43-12 28-19 37-10 14-30 24l13-2q15-1 30 2 21 4 39 15 22 15 37 40 19 31 27 76 14-48 42-85 25-34 69-66-39-46-75-68-29-17-58-20-18-1-46 3zm133 85l-9 38q3-15-6-23-6 8-16 13t-15.5 10.5T267 271q0 5 3 14.5t2 13.5l-4-6q-5-8-9-18l-3-9q-6-15-5-18t14-4h2q14-1 21-5 14-7 20-26 5-14 1-21.5t-12-8-14 4.5q-2 1-2 0v-4q1-6-1-9.5t-10-1.5q-12 3 2-4l16-9q16 5 24 16 7 8 9 20 1 8 0 17z"/></svg>