<svg xmlns="http://www.w3.org/2000/svg" viewBox="0 0 501 512"><path d="M417 255q4-2 1-9-1-4-7-11l-2-3q-17-41-57-96l-8-11q-8-11-31-27-16-12-37-25l-19-10-9-2q-13-1-25 3-17 5-32 18-11 10-16 20-4 6-8 17.5t-7 18.5q18-17 43-34l21-12-7 29q-9 31-18 43l-13 14q-16 18-21 24-8 10 4 1 16-11-4 15-10 12-23 28l14 38q17 43 31 61 13 8 17.5 11.5T202 358t-15-13l-9-5q-39-24-49-32l-3-4 3 4-5-10q-11-18-12.5-22t-.5-24.5 3-31.5q3-13 6 1-3-17 4-35l-11 11q-17 18-23 27-10 15-14 36-3 23-1 62 4 46 35 80 26 29 67 45 36 14 69 14t71-15q42-17 70-45 32-33 38-74 4-33-8-72zM246 77l34 30q39 36 65 66l-8-2q-23-6-36-13-5-3-2.5.5T309 171l9 11q2 3 4 8l-9-13q-3-4-18-14-22-15-27-23-15-22-20-45-2-11-2-18zM104 341l-7-45 6 14q9 16 18 30 13 19 27 30-8 2-10 9.5t-2 13.5q-21-24-32-51v-1zm293 6q0 6-5 13 2-32-7-32l-18-1-12 19q-14 20-17 23.5t-9 5.5q-10 3-13.5 9.5T307 394q-4 3-3.5 5.5t-2 6.5-2.5 5.5 5.5.5 7.5 0 5 3l2 2q2 2 6 3-32 22-65 23-20 0-56-11l-18-4q-18-5-35-19l20 12 23 4 4-5q4-7 4-16 0-7 3-10 8 1 17 3-8 9-9 17-1 5-6 8-2 2-1.5 3t5.5 4q10 5 14.5 7t9.5 2h2q8 0 12-1.5t5-7 11-32.5q34-5 63-27 62-48 28-123v-1q13 7 20 9 12 4 23 4 4 13 5 23 3 24 1 37-1 7-4.5 14.5T397 347z"/></svg>