<svg xmlns="http://www.w3.org/2000/svg" viewBox="0 0 512 512"><path d="M445 124q7-10 8.5-18t-1-10.5-10.5-1-17 8.5l-68 54q-34 25-38 23l-2 1q-3 2-4 5.5t1 9.5l2 7-19 19q2-38 4-70t4.5-39-3.5-19-14.5-22T274 62t-14 10-14.5 22-3.5 19 4.5 39.5T250 222l-49-49q0-4 4-7.5t4.5-5.5-.5-5-3-4l-31-31q-4-4-8.5-1t-8.5 10l-6-5q-6-6-14.5-6t-14.5 6q-6 6-6 14.5t6 14.5l5 5-9 6q-16 11-34 19-4 1-13.5 1.5T60 188q-5 4 0 16 12 29 35 53 20 20 47 29 18 6 28 5 6 0 7-7 2-8 2-22 0-2-2-4.5t-1.5-10 4-14T191 221l54 53-122 122q-6 6-6 14.5t6 14.5q6 6 14.5 6t14.5-6l98-98 2 13q1 25-7 25h-13q-4 0-7 3.5t-3 8.5 3 8.5 7 3.5h7q8 0 12 2.5t4 14.5v26q0 7 5.5 12.5T274 450q8 0 13-5.5t5-12.5v-28q0-10 5-13 4-2 11-2h7q5 0 8-3.5t3-8.5-3-8.5-8-3.5h-12q-9 0-7-24l2-14 97 98q6 6 14.5 6t14.5-6q6-6 6-14.5t-6-14.5L303 274l41-42 8 3q9 2 14-2 2-2 3-4v-2q1-4 5-11 6-9 17-24 18-24 48-60z"/></svg>