<svg xmlns="http://www.w3.org/2000/svg" viewBox="0 0 501 512"><path d="M407 120q-5 1-46 16 17 17 29.5 40t17.5 44q9 34-1.5 74T371 368t-59.5 51-86.5 10q-55-7-95-36-46-34-54-88-4-27 4-57 7-27 21-46.5t28-21.5q23-2 38.5 22t16.5 67q1 32 17 57t41.5 35 51.5 3q31-9 56-33 22-21 33.5-49t8.5-51q-2-19-24-36-16-13-39-22l-21-7-3-10-72 27 1 4q2 4 2 12 0 10-5 25-6 20-19 34-6 7-12 10l-1-17q-2-21-6-36-5-22-12-30-12-15-23-21-7-5-13-5l-5 1q1-13 20-21.5t31-5.5q9 2 18 10 7 5 13 13l4 7 71-32q-7-27-2-27 19-2 41 11 40-17 49-20 16-5 27-4t13 7.5-2.5 13T407 120z"/></svg>