<svg xmlns="http://www.w3.org/2000/svg" viewBox="0 0 501 512"><path d="M91 100l-11 21 16 7h13q16 1 28 5 16 5 22 14 9 13 14 13 2 0 3-2l17-13-5-17 29-5v11q-2 13-9 23-10 14-28 21-19-8-31-22h-14l9 17-2 26 21-2v25l-19 7-4 20-12 14q-13 14-22 14H67l-5 11 5 17 4 3q6 3 15 5 13 4 30 4 21 1 47-2 15-9 23-16 5-5 9-12 8-12 21-22 15-12 32-20 11-5 14.5-10.5T268 212l1-16-18-19-12-4-5-31 3-7q3-9 6-15 6-8 12-9 14-4 17-11V86l-17-6q-21-7-39-9-24-3-39 3 6 1 19 2 20 1 27 3 11 4 8 12t-14 15q-7 5-18 9l-9 3-34-21zm182 96v10q0 12-3 21-3 12-10 16-27 18-43 33-6 5-17 18-12 15-19 21-12 10-26 11-34 3-66-6-16-4-25-9l-6-19-8 4 7 24 23 8q28 8 50 11 32 3 49-5 12-6 19-16 5-5 11.5-17t11.5-17q8-10 23.5-15.5T271 248q10-14 13-29t-2-22q-5-4-9-1zm31-59q6 9 11 19 13 19 18 22 26 15 50 2 12-7 23-26 9-16 9-21l-3-1q-55-37-108 5zm-4 221l8 16q11 18 23 31 17 18 34 23 26 6 53-6 13-5 21-12l11-21-1 17-3 8q-5 9-13 16-10 9-24 13-19 4-39 0-14-3-28-11l-10-7-8-8q-8-11-14-24-9-17-10-35zm-51-211l6-10q7-12 17-22 15-14 32-23 22-11 48-13 49-3 71 18 11 11 13 22l-11-9-11-7q-14-7-30-11-23-4-45 1-28 6-54 26-1 10 10 29 5 9 11 17l8 11q10 14 21 22 14 11 27 10 19-1 38-33 12-21 20-45 2-6 6.5-7t8.5 0l4 2 11 8-28 35-2 23-18 13v40l9 15-2 15 5 14-11 11 11 21-12-5q-13-5-26-5-17 0-28 9-31 24-14 12l13-6q15-6 30-7 20-1 36 8 8 13 21 31 7 9 10 13 4 6 5 12-4 10-10 17l-6 5-2 4q-5 4-14 6-13 4-34 5-19 1-34-7-12-6-22-18-6-9-11-20l-3-8-12-16 6-69-8-25 20-26-24-22 5-18z"/></svg>