<svg xmlns="http://www.w3.org/2000/svg" viewBox="0 0 501 512"><path d="M224 371h2-2zm10 1l-8-1q2 2 1 9-2 11 8 45 6-5 9-9l3-6q-13-5-14-22-1-8 1-16zM79 359l-1-1zm97-150q-10 15-16 30-4 11-6 21l-1 7-10 22-7-16-9 5-2 27-9-13-8 7 2 6q3 8 9 16 9 12 21 23 16 14 38 26-1 12-3 29l-1 14-7-2q-15-3-27-8-20-9-39-29 0-6 3-9l3-2 10 8q11 9 20 14 13 8 19 6 1-8 4-19l-12-6q-13-8-24-18-14-14-20-30l-1 8q-1 13-3 19-3 9-10 12-10 4-11 2l2 9 11 13q14 15 30 26 22 16 46 22 29 8 58 0-9-7-10-25-1-15 3-33-5-7-12-21l-5-13 28 29 18-5-5-9 23-3q23-2 30 1 7-3 30-17l22-13 20-31q21-35 29-53 2-7-1-15-1-3-3-6l-16 9-11 11q-12 14-14 21t-16.5 18.5T309 287q1-10 15-36 7-12 14-23l38-47 36-36q6-7 8-14 4-9-1-17-5-3-11-1l-5 3-58 44-37 39-18 17-4 1q-3 1-4.5-1t2.5-8q5-8 17-24l11-15 31-32 22-8q22-9 25-15.5t3-12.5l-1-5-7-5-18 8q-21 9-35 14-9 4-21 14-8 8-16 18l-7 8-32 39 9-19 28-32 21-27 16-4q16-5 19-8.5t4-9.5v-6l-11-4-18 7-26 2-52 32q-6 6-27 30-30 35-43 56z"/></svg>