<svg xmlns="http://www.w3.org/2000/svg" viewBox="0 0 501 512"><path d="M373 238q0-47-31-81t-76-40q-2-3-5-5l-3-2q-3-1-3-3t5-6q2-2 5.5-4t3.5-2.5-3-2.5q-5-4-7.5-6.5T254 79t-3-4-3.5 4-5 6.5T235 91q-2 3-2 3.5t3 2.5l6 4q4 4 4 6t-3 3l-3 2-5 5q-27 3-50 18-47-26-56-14-4 5 0 22.5t14 36.5q-14 27-14 58 0 48 32.5 83t79.5 38q-5 2-11 5.5t-6 7.5 6.5 7.5 6.5 7.5q0 9-12 17-3 2-9 4l-4 1q-1 2-1 4v5q0 3 3 3h22q3 0 3 2t-9 4q-6 0-19 1h-22q-4 0-13 7.5t-9 10.5 5 3h158q5 0 5-3t-9.5-10.5T313 428h-23v-15q0-2-1-4l-4-1q-6-2-9-4-12-8-12-17 0-4 6.5-7.5t6.5-7.5-6-7.5-11-5.5q26-2 49-15 19 10 35.5 14t21.5 0q12-9-13-54 20-30 20-66zm-16 0q0 27-13 50l-1-2q-18-28-50-62-2-29-10-54-9-30-22-38 40 4 68 34.5t28 71.5zm-82-32q-21-22-44-40 8-13 19-13 18 0 25 53zm18 43q7 9 10 14 11 16 16 28 6 17-1 23.5t-36-4.5q9-27 11-61zm-48-117q-14 5-23 27-10-8-21-14v-1q20-10 44-12zM145 238q0-22 8-42l4 5q14 19 27 34 11 13 12 12t-2-6l-2-4q-9-17-15-32-11-29-5-35 11-11 44 8-3 10-5 21l-1 9 2-1q3-1 4-6 2-10 6-19l26 19q-16 1-26.5 12.5T211 241t11.5 28 28.5 12q13 0 23-8-3 26-10 38-1 0-1 1-6 10-13 10-14 0-25-22-6-12-9-26-2-7-6-7l3 17q4 21 10 35 9 20 22 24-42-2-71-32.5T145 238zm115 105q9-4 17-20l16 12q-16 7-33 8z"/></svg>