<svg xmlns="http://www.w3.org/2000/svg" viewBox="0 0 501 512"><path d="M148 221q-2 1-5 4l-4 4q-5 5-6 9 0 3 1 4.5t2.5 1 7.5-8.5 7-11 0-4-3 1zm224-48q1 0 3-1.5t3-1.5l13 10q21 16 23.5 16t7-5.5 2.5-9-9-10-12-9.5q-2-1-5 1t-4.5 2-3-2-.5-4q3-4 3.5-8.5t-3.5-7-8 .5q-2 1-5-1l-56-47q-14-12-22-16-12-7-26-7-9 1-19.5 7T237 93q-10 11-14 18t-4 14q0 4 6.5 7.5T238 137h7l4.5 1.5-6 2.5-13.5 1q-3 0-10.5-2.5t-10.5-3-5.5 3-.5 7.5l1 2q3 4 2 6l-11 23q-8 19-14 26-9 12-17 7-2-1-2 1 2 13-13 31-11 13-19 16-5 3-15 2h-1q-1 2 0 4l1 4q3 4 2.5 6.5t-4.5 5-6 5-1 7.5q4 12 63 17 33 2 74 2 72 0 94.5-1.5T391 302q1 0 2.5.5t-.5 1.5q-18 12-86 16h-14q-30 2-42 2-120-1-151-14-17-7-19-11-1-2-3-2t-2 2q-1 11 18 21 16 9 33 10 1 0 1 1.5t-1 3-4 3-1.5 4 4.5 9.5q5 13 10.5 20.5T155 384q8 6 11 9 5 5 4 12 0 4-9 8-6 3-9 5.5t-3 7.5q0 8 13 14t36 8 28-2q3-1 2.5-6.5t4.5-8.5q7-5 15.5-4.5T263 432q2 2 2 7t2.5 7.5 17 2.5 28.5-3q17-3 25-8.5t7-13.5q-1-4-3.5-6t-7.5-4q-10-4-11-9.5t4-10.5q4-4 13-10 10-7 14-11 5-6 12-23 6-12 9-16 5-7 21-15 10-4 14-7 5-5 5-12 1-4-2-6-10-11-30-15-5-1-6-2l-1-3 1-4q2-12-7-27-7-11-18.5-20.5T336 213h-4q-5 0-8-1-12-6-20-24l-17-32q0-3 1-5t0-5q0-7-9-13l-1-1q-9-6-9-17t13-13q6-1 16 6 6 4 19 14l50 40q-2 2-1.5 4t2.5 4 4 3zm-43 47q1 0 2 .5l1 .5q4 17 33 36 5 3 3.5 4t-5.5 0q-11-3-21-10-13-9-13-22v-9zm-68 50q-5 5-13 5t-13-4-6-12q7 8 16 8t13-7-1-16q8 6 8.5 14t-4.5 12zm13-30q-1 0-3-1-6-5-10.5-7t-12.5-3q-14-1-23.5 8t-9 21.5T229 279q-12 2-20-7t-6-20q3-17 18-25t31-4 22 17z"/></svg>