<svg xmlns="http://www.w3.org/2000/svg" viewBox="0 0 501 512"><path d="M270 262l111-111h7q4 2 10 2t11-4 7-12q2-4 2-13 1-12 4-16 5-5 14-10l2-1q0-1-3.5-1t-8.5 1.5-10.5 5.5-5.5 7l-1 3q-1 7-5 10-6 7-14 6t-13-6-2-20l-10-2q-11-1-24 0-18 0-35 5-30 7-70 30-10 7-13 7-8 3-23 0-8-1-16-5l-2-2h-9q-2 0 1 3l21 22q4 3 1.5 5t-5.5 2-7-1.5l-4-1.5-4 4q-1 1 0 2l18 18q1 1 2 0l11-11q3-2 5 0l11 11q1 2 3-2l1-1q7-15 17-26t30.5-20 45.5-12q31-5 55 11v7L264 257q-1 1 0 2l4 4zM86 448l1-2q5-8 10-13 4-3 15-4 9 0 14-2 8-2 12-7t4-11-2-10v-7l116-117 105 104v22l5 5 1-10q0-2 1-3h1v16l34 34-1-24 6-6 24 1-34-34h-17l1-1q1-1 3-1l10-1-5-5h-22L137 141q-19-19-18-23.5t8-4.5L63 74l39 64v-4q2-3 4-4 5 0 24 18l33 34-9 8q0 1 1 4.5t1.5 7-1.5 5.5-5-1l-22-22q-3-2-3 0v9l1 2q5 8 6 15 3 16 0 24 0 2-7 13-23 40-31 70-6 24-5 49 1 12 3 19h8q9 0 13 4t5 12-6 14q-3 4-10 5h-3q-4 2-7.5 6.5t-5 10T85 445t1 3zm41-62q-16-24-11-55 4-25 13-45.5t20-30.5 25-17l2-1q4-2 2-3l-11-11q-2-2 0-5l16-16 68 68-116 116h-8z"/></svg>