<svg xmlns="http://www.w3.org/2000/svg" viewBox="0 0 501 512"><path d="M398 364q-2-2-12-7-16-8-25-15-3-3-3-9v-2q-1-3-5-3l-13-1q-1 1-1.5-1t2.5-3l1-1q4-2 7.5-5t3.5-4l-3-3q-4-4-7-9-1-2-1-7.5t1-9.5 5-12q2-2 2-13l1-15q1-4 4-4t4 2l1 2 1 23q0 5 .5 6t6.5 4q11 6 21 13 2 1 3 .5t0-1.5q-7-12-8-17.5t0-24.5l1-17q2-51-30-94-16-20-42-34-24-13-48-16-10-1-25-1-18-1-28-3-7-1-15-6l-4-2q-2-1-3-.5t0 2.5l1 4q8 19 8 26 0 4 6 3h8.5l7.5 1 3 4v3h-1q-11 1-19 4.5T186 132q-14 9-22.5 20T146 191q-5 16-8.5 21.5T124 228l-1 2q-3 3 1 3h75.5l1.5-3.5 2-4.5q23-14 40-24 8-5 14-5 12 0 20 6 11 7 10 18-1 3-1.5 3t-1.5-4.5-6-8.5q-2-2-7-5-6-3-15-2-3 0-12 6l-31 20q-4 3-4 8l-1 2q-2 6-8 6h-74q-2 0-2 6v4q-1 8-7 19l-4 10q-4 8-9 14-3 4-3 5t4 4l5 4 6 5q8 8 13 12t14.5 10 12 8 2.5 5l1 2q1 2 4 0t18-14q2-1 3-.5t-1 2.5v1q-12 11-14.5 14t-.5 8q5 8 11 17t10 11.5 7 2.5l56-29q1-1 2-.5t0 1.5l-64 42v5q-1 9-3 14.5t-9 11.5q-5 5-7 6t-1 2q1 3 40-3 14-3 29-8 21-8 31-17 18-16 35-29 25-20 36-23 15-5 30-4 12 0 23 4h2q2 1 3-.5t-1-3.5zm-223-32l-4 3q-2 2-5 0l-40-27q-1-1-.5-1.5t1.5-.5l9-2q3-1 6 1l33 24q2 1 0 3zm15-11l-3 3q-2 1-4 0l-14-12-15-11q-2 0 0-1l7-1q2-1 5 1l24 19q2 1 0 2zm15-11l-3 3q-1 1-3-1l-22-16q-2-1 1-2l5-1q3 0 5 1l17 13q2 2 0 3zm14-10l-2 2q-3 2-4 0l-14-10q-2-2 1-2l5-2q3 0 6 2l8 6q2 2 0 4zm-12 124q-5 0-4.5-6t4.5-6 5 6q0 6-5 6zm48-30q-2 1-3.5 3t-.5 3.5.5 2.5-2-.5-2.5-3.5l1-4q0-5 4.5-5t4.5 2-1 2h-1zm13-162q-3-4-8-5.5t-9 1-4.5 7.5 4.5 10q1 1-2.5.5T244 243q-4-3-3.5-10t5.5-10.5 11-3 9 5.5q3 2 3 5.5t-1 1.5zm34 136q-2 1-3 3v5q0 3-2.5 1.5t-2-6 5.5-5.5q2 0 3 1t-1 1z"/></svg>