<svg xmlns="http://www.w3.org/2000/svg" viewBox="0 0 501 512"><path d="M70 414q17-67 80-106l3 3q2 3 2 4v16q-1 13 .5 17.5t6 5.5 19.5 1h36q18 1 24-.5t8-8.5q1-6 0-27l-1-88q0-21-5.5-26.5T224 200q-21 0-47-1h-2q-11-1-15 2-4 5-5 25 0 30-1 45 0 6-4 9.5t-10.5 4T129 281t-5-10q-1-57 0-85 0-14 3.5-17t11.5-3h121q20 0 22 21 2 14 1 23l-1 143q0 22-6.5 28t-29.5 6l-18 1h-66q-16 0-23-2-12-4-10-15t-.5-10.5-8.5 6.5l-3 3q-21 17-47 44zm362-258q-13 8-37 21-20 11-30 18-14 9-19 23-5 12-7 36 2 10 1 30v8q-1 10-3 16-4 12-17 10-10-1-10-13V164q1-21-20-22l-86-2q-14-1-14-14 0-15 16-16h98q18 0 24.5 1.5t8.5 8 3 23.5l-1 9q-1 18 4 25 16-14 40-20.5t49-.5z"/></svg>