<svg xmlns="http://www.w3.org/2000/svg" viewBox="0 0 501 512"><path d="M426 120q9-12 11-45v-1l-18 2q-19 3-27.5 9T346 117l-42 30q-25 19-35 10-6-5-6.5-14t2-16.5T277 111l3-2q2-3 1.5-9t-4-9-19 1.5T229 109l-6 4q-27 21-44 37-23 21-48 51-14 18-24 31-21 17-33 42t-12 53q0 33 16.5 61t44.5 44.5 62 16.5q28 0 52.5-12t41.5-33q48-34 82-71 16-17 37-45l4-5q12-15 16.5-30.5t1-19-9-3.5-8.5 2l-2 2q-8 10-15.5 13t-16.5 2-14-6q-9-11 10-36l30-41q26-36 32-46zM185 410q-35 0-59.5-24T101 327t24.5-59 59-24 59 24 24.5 58.5-24.5 59T185 410zm140-144q8 9 33 7 12-2 23-4l-3 4q-5 6-9 11l-4 5q-13 17-23 27-15 14-37 32 2-11 2-21 0-33-16.5-61T246 221.5 185 205q-11 0-22 2 19-24 33-38 10-10 27-23l5-4q5-4 10-9l5-3-2 11q-2 14-2 24 1 15 7 21 12 10 30 6 14-4 35-18 15-10 87-64l12-8-5 6q-57 77-68 93-14 21-18 35-4 18 6 30z"/></svg>