<svg xmlns="http://www.w3.org/2000/svg" viewBox="0 0 512 512"><path d="M453 149q-4 0-18 3-1-17-16-33.5T387 99q-10-2-19.5 3t-14 12.5-.5 11.5q2 2 9 2.5t11 2.5q6 3 9 10 4 12 .5 20T372 171l-52 16-16 6q-13 5-21 6-12 3-27 3t-27-3q-8-1-20-6l-16-6-19-5Q66 148 59 149q-20 2-8 38l1 2q13 40 32 71 28 44 57 48 22 3 42-3 12-3 32-14 13-6 20-9 11-4 21-5 15 1 39 13-44 80-50 96l-4 8q-4 8-5 11-1 6 2 8 4 3 17-11l2-2q10-10 36-41 34-40 45-50 17 1 33-1 29-4 57-48 19-31 32-71l1-2q12-36-8-38zM144 267q-17-2-31-17-10-12-16-30-5-15-4-24 0-6 31 3 26 8 58 22.5t36.5 19.5-7 12-31 11.5T144 267zm224 0q-17 2-36.5-2.5t-31-11.5-7-12 37-19.5T388 199q31-9 31-3 1 9-4 24-6 18-16 30-14 15-31 17z"/></svg>