<svg xmlns="http://www.w3.org/2000/svg" viewBox="0 0 501 512"><path d="M184 342V187q0-4-6-7l-5-2-6 2q-6 3-6 7v155q0 7 11 9l6-2q6-3 6-7zm61 0V187q0-6-11-9l-6 2q-6 3-6 7v155q0 7 12 9l6-2q5-3 5-7zm62 0V187q0-4-6-7l-6-2-6 2q-6 3-6 7v155q0 7 12 9l6-2q5-3 5-7h1zm59-268q-8 0-16 6.5t-8 12-12 5.5H150q-19 0-32 14-4 4-7.5 10.5T107 135q0 9 3.5 15t13.5 6q7 0 12-4 4-2 9-7 6-6 11-6h163q9 0 17 5.5t8 16.5v173q0 10-13 28-14 19-34 31-25 16-51 16-58 0-97-31l-1-1q-5-3-9.5-4t-7 2 0 11.5T139 400q11 14 34 27 36 22 73 22 27 0 60-18t55-44q24-27 24-51V168q0-5 4-14t4-15V98q0-7-9.5-15.5T366 74z"/></svg>