<svg xmlns="http://www.w3.org/2000/svg" viewBox="0 0 501 512"><path d="M104 214q-1 0-3-2l-13-16q-2-4 0-6l3-4q3-3 6-3h175q8 0 13 1.5t7 4.5l2 2q2 2 3.5 1t.5-4l-2-2q-2-3-7-5.5t-14-2.5H68q-2 0-4-1.5t-2-3.5v-15q0-2 2-3.5t4-1.5h246q2 0 4.5 1t3.5 3l5 11q3 6 5 6h102q2 0 3 1t1 3l-5 12q-6 13-15 25-11 16-25.5 25.5T356 257q-19 6-21.5 4.5T331 256t-3.5-3-2.5 6q0 2-1.5 3t-6 2.5-9.5 7.5q-9 10-9 24 0 9 6.5 17t13 11 14.5 4q4 1 4 6v30q0 5-5 5h-54q-4 0-4-5v-6q0-7-15.5-14t-28-7-22.5 2q-7 2-11 4l-4 3q-1 1-3 0l-2-1-2-3q-1-4-1-6 0-8 9-16 7-6 19-10 6-2 1-3l-6 1q-7 1-14 5-16 10-16 28v23q0 2-1.5 3.5T173 369h-52q-5 0-5-5v-29q0-2 1.5-4t3.5-2l10-6q11-7 18-18 10-14 10-32 0-27-20-44-16-15-35-15z"/></svg>