<svg xmlns="http://www.w3.org/2000/svg" viewBox="0 0 501 512"><path d="M426 434q-5-1-11-2-15-4-34-11.5T348 402v-4q-1-5-4.5-10t-9.5-12l-4-4q-3-4-5.5-10t-3-9.5.5-6.5l1-2q1-3-.5-3t-3 4.5-1.5 11 4 19.5q0 3 1 8v5l-17-13q-8-5-14-12 2-2 4-5 5-5 4-25t-8-32q-4-7-8-12l-4-4-15-31q-4-7-10-16.5t-8-11.5q-7-8-8-6.5t4 6.5q2 2 7 10.5t9 17.5q5 13 8 30l-1 4v8l-7-12-10-12-2-12q-3-13-6.5-19t-8.5-13l-5-5-4-12q-3-10-11-24l-2-5q-2-2-4.5-5.5L203 174l2 5 8 21q2 6 4 14l1 6-4 9-9-11-1-10q-3-12-6-22-5-15-13-29-3-6-7-11t-4.5-4.5 3.5 7.5l2 5q8 16 7 27 0 5-3 10l-7-6-11-8q4-16-2-29l-4-10-3-3-4-10q-6-10-11.5-16.5T134 103l10 15q2 4 7 18l-2 5-2 7q-8-12-17.5-20t-13.5-8l2 2q12 11 19 22 12 19 9 29-1 2-4 3-2-15-9-25t-19-19l-11-7-5-7q-6-8-10-15.5T79 82q-3-8-4-8t1.5 10.5T83 103l11 25v7q1 9 4 17 1 15 4.5 23t7.5 14h1-3q-2 0-3-1l-8-7q-6-6-9-10l-6-8q-7-10-8-9.5t3.5 9T88 178l11 16 2 6q3 7 8 12 6 6 14 8l6 1 7 11h-9l-10 1-5-3q-6-5-10-10l-13-17q-5-6-6-5.5t.5 3.5 3.5 5l3 4q17 24 24 30 21 19 34 25 4 2 11 4l11 18-17-2q-2 0-7-3l-10-6q-8-7-19-20l-4-5q-3-3-3.5-2.5t.5 2.5l3 5q10 13 19 22 4 4 18 16l4 4q7 8 15 13 5 4 15 5l16 16 2 6 3 5-5-1q-5-1-11-6-14-10-19-15-7-7-7.5-6.5t3.5 6.5l10 11q8 9 12 12l7 5q10 7 12 9 4 6 11 11 12 9 27 11 11 2 22 1 7-2 13-4l5-2 18 16-10 1q-6 0-17 2t-19 5.5-14 8.5q-2 1-3 3v2h1q1 0 3-1.5t7.5-3.5 9.5-2q7 0 19.5 4t31.5 4q10 0 20-3h3q1 0 12 7l19 12q9 5 24 12t17 7q5-1 13-8 7-6 6-7zM126 192q-1 0-5-2l-3-3q-4-3-6.5-7.5T109 170q6 8 9.5 10.5t8.5 3.5l1 4v2q0 2-2 2zm22 43q-4-2-9-7l-3-5 8 2h6l12 13h-4q-5 0-10-3zm22-44q2 1 3 2 3 4 7 8.5t4.5 9.5 0 8-4.5 2l-5-6-4-5v-7zm28 104q-1 2-8.5-2T173 276l7 2 6-1 8 9q6 6 4 9zm14-55l4 2 2 10 3 13h-4l-2-3-3-3v-9l-3-12zm16 104q-1 0-4-2l-6-3q-3-1-7-4l-3-4h9l7 1 12 11-3 .5-5 .5zm35-17q-4-5-7-10l-5-6 1-9q1-4 0-11 2 0 7.5 8.5t6 14-.5 9.5z"/></svg>