<svg xmlns="http://www.w3.org/2000/svg" viewBox="0 0 501 512"><path d="M124 287q0-6-4-10.5t-9.5-4-9 4.5-3.5 10 3.5 10 9 4 9.5-4 4-10zm52-110q7 0 11.5-5t4.5-12-4.5-12-11-5-11 5-4.5 12 4.5 12 10.5 5zm92-38q6 0 10-4.5t4-11-4-11.5-10-5-10.5 5-4.5 11.5 4.5 11T268 139zm101 22q5 0 9-4.5t4-10.5-4-10-9.5-4-9.5 4-4 10 4 10.5 10 4.5zm61-20l-7 7q-8 8-12 10l-6 3-3 1-4 2q-4 3-6 4-11 3-28 3l-11-1 1-2 4-4v-2q-1-1-4 1t-7 5l-4-7q-4-10-4-23 2-19 7-28t11-18l-5 1q-3 1-10.5 8.5T331 114q-7 11-7 19 0 4 2.5 10.5t5.5 9.5q3 6 8 12l4 5-14 15q-4 4-9 17v1q-1 2-3 4l-11 4-7 7-2-3q-2-3-3-7-2-8-8-24l-8-16 5-5q6-7 9-12t7.5-15.5T306 119q2-12-4-25-4-8-9.5-13.5t-12.5-12-9-7.5-2 0l1 2q9 10 11.5 15.5T283 94l-1 8 3 3q2 4 3 7 2 10-.5 26.5T277 162l-3-4-2-7q-2-5-3.5-4t-1.5 2q1 2 1 4t-2 2l-10-12q-14-18-24.5-25.5T211 105t-17-5-11 2-10 8l-8 8q-1 2-1 4l3-1q4-2 10.5-2t19.5 9l14 10 8-1q9-1 13 0 10 3 15 8 3 2 8 9l5 6q1 4 2 4l1 1q5 3 8 6 4 5 8 17 6 16 6 29 0 4-1.5 12t-1.5 12q0 15-12 34l-2 4 1 3q5 7 7 12l2 6q2 4 1.5 6t-5.5 5l-10 6 1 2q2 2 5 3l2 1q6 2 10 5l5 6q3 4 3 5l-17-10q-4-2-11-4t-10-3q-19-8-35-19-8-5-14-12l-5-6-4-1q-3-1-6-3l-2-1q-5-3-6-6t0-13l-4-12q-4-14-4-19-1-8-1-16l6-7q6-7 11-9 12-6 20-5l15 1q1 0 7.5-4.5t9.5-9.5l15-16 1-4-7 4q-5 2-12 2-4 0-12-1l-3-1q-3 0-10 3t-16 9q-11 8-19 18l-6 8-1-5q0-4 1-9v-1q0-1-1.5-2t-3.5 2-3 8l-1 6-2-1q-2-1-4-3v-1q-6-8-8-12-4-10-4-21.5t6-17.5l-1-5q-1-6-.5-12t1.5-9v-2l2-8q1-4 2-6l2-5-5 5q-7 6-14 15-16 19-16.5 36t17.5 35l23 22-1 11q1 10 3 15 4 12 4 27 0 9-1.5 17t-2 9.5-.5 4.5h4q5 0 6 1l5 2 4 2 16 19q8 9 17 16l7 6h-5q-5-1-11-5-3-1-5-3l-2-2-6 1q-6 1-9 1-5 0-12-3-10-3-17-8-15-12-17-21l1-11q1-12-1-29-1-7-6-21.5t-9.5-21-13-11T93 203q-15 0-23 6l8 2q9 4 16 12t16 25l3 1q3 1 6 3 11 9 14 24 1 5 2 11v6q0 2-1 2h-2l-2-2q-2-2-3-1.5t-1 2.5l2 3q1 3 1 5l-1 1h-5q-7 2-12.5 5.5t-15.5 15T82 343q-6 12-4 28 1 9 12 23l2-9q2-9 3.5-13t6.5-12l5-7v-27q1-1 5-7t7-8.5 8-3.5l4-1 15 18q12 13 20.5 18t23.5 13q7 4 14 10l5 6 5-4q6-4 10-5 10-4 23-4 9 0 18 5 6 3 15 10l9 8q9 10 14 18 12 22 14 38 1 9 1 18v3l1 3 7-7 9-5 5-6q6-8 12-12 14-12 25-14t21 1q3 0 5.5 3t3 6-.5 5l-1 2 3-1q2-1 3-4t0-7-4-7q-7-8-16.5-9t-16.5-3l-18-7q-6-2-8-3t-9-10l-21-23q-4-6-5-10.5t-.5-10.5 1.5-9q3-7 19-7l-1-3q-1-3-3.5-4.5t-8-3-7.5-2.5q-8-4-14-13.5t-6-21.5 8-30 14-22 16-4l3-1-2-4q-1-5 0-12 1-4 3.5-10t5.5-9l9-8 9 3q10 3 17 3 14 2 24 0t17-10q3-3 7-11t5-13zm-77 108q-6 0-10.5 4.5T338 265t4.5 12 10.5 5 10.5-5 4.5-12-4.5-11.5T353 249zm1 37q-6 0-10.5 4.5t-4.5 11 4.5 11 10 4.5 10-4.5 4.5-11-4.5-11-9.5-4.5zm-32-17q-7 0-12 5t-5 13 5 13 12 5 11.5-5 5-13-4.5-13-12-5z"/></svg>