<svg xmlns="http://www.w3.org/2000/svg" viewBox="0 0 501 512"><path d="M423 316q15-18 14-50 0-15-9-33-10-22-27-35-21-16-49-16-17-1-33 14-11 9-19 24-13 22-2 33 2 3 7.5 2t8.5-4 3-1q0 4-6 9t-14 5q-11 0-16-12-2-5 0-14.5t8-17.5q9-12 23-25 2-1 2-3.5t-1-4.5q-7-10-22-18-20-11-44-11-40 0-74 42l-2 1q-7 9-13 22-7 18-1 27 5 6 11 4 5 0 8-3t3-2q0 5-8 11-4 4-13 3-10 0-14-9-3-7-1.5-17t6.5-18 21-25l2-2q3-3 1.5-6.5T170 181q-8-4-18-3l-9 1-11 3q-14 5-26 12-17 10-28 25-13 18-15 43-2 11 2 25.5T78 312q19 22 56 28h2l2 1q38 24 96 24t95-16l2-1h5q27-1 44.5-6.5T410 327l4-3q6-5 9-8z"/></svg>