<svg xmlns="http://www.w3.org/2000/svg" viewBox="0 0 501 512"><path d="M361 188h-18l-9 10q-9 10-13.5 10t-8-7-3.5-14v-80q0-10-7-23-3-6-6-10l-7 11q-6 14-6 22l-1 86-2 3q-4 4-10 8-10 7-20 8l-6-1q-8-3-14-7-10-6-13-11v-86q0-13-12-33h-1l-6 10q-7 13-7 23v80q0 7-3.5 14t-8 7-13.5-10l-9-10h-18q-4 1-6 3t-2 4 37 84q26 58 28 64 4 9 21 60l9 29q3 6 7.5 11t7.5 5h18q3 1 7.5-4.5T273 432l11-30q16-50 20-59 2-6 28-65 37-81 37-83t-2-4.5-6-2.5zm-46 71q-2 7-11 17.5T287 292l-6 4q-6 3-9.5 5.5t-7 7-3.5 6.5 7 10q8 10 8 12v27q0 3-9 15-4 7-5 9-6 13-6 21 0 3-3 5l-3 1-3-1q-3-2-3-5 0-8-6-21-1-2-5-9-9-12-9-15v-27q0-2 8-12 7-8 7-10t-3.5-6.5-7-7T218 295l-5-3q-8-5-17-15.5T185 259l-6-19 4-5q4-5 8-8 8-5 14-5 1 0 7 6 11 12 17 14 9 4 16 5h10q7-1 16-5 6-2 17-14 5-6 7-6 6 0 14 5 4 3 8 8l4 5z"/></svg>