<svg xmlns="http://www.w3.org/2000/svg" viewBox="0 0 501 512"><path d="M162 275q36-11 50.5-27t13.5-45q-18 5-56 21-50 21-75 27 10-12 28-24 10-8 33-22 33-20 45-31-22-15-35-26-18-15-29-31 19-1 39 6 12 4 35 16l14 8q6-10 9-23 2-8 4-26 4-32 11-47 8 17 15 56 4 26 8 38 9-3 26-10 20-9 31-12 17-5 33-6-11 16-28 31-14 11-37 25 13 11 46 32 45 29 62 46-19-4-45-14-16-6-47.5-19.5T268 200q-2 27 16.5 47t53.5 29q-6 9-22 27-18 22-26 34-13 19-16 35l-1 4q-14 63-26 95l-21-98q-4-19-21-43-9-14-31-41l-13-14h1zm87-24q-9 4-20 17l-6 7q-8 7-2 16l25 39q21-24 26-36t-1-22q-4-6-22-21z"/></svg>