<svg xmlns="http://www.w3.org/2000/svg" viewBox="0 0 501 512"><path d="M386 346q-4-2-12-5-12-5-17-9l-5-3q-14-9-18-13-14-12-18-22-2-4-11-20l-3-5q-7-11-8-16l12 14 3 4q3 6 6 8h1q1 0 1-1-2-7-.5-16t4.5-15v-1l-1-1q-14-6-28-17l-10-8q-9-6-13-12 2 2 11 6l5 3 10 7h1v-2l-2-5q-4-12-3-20l-3-6q-10-8-16-19l-6-9q-13-17-17-34-26 3-50-2-1-1-10-6-14-8-21-11t-17-6l-6-2q-5-2-12-3l-6-1q-23-5-42-11-6 9-7 20 0 7 2 21l1 8q0 9 1.5 13.5t6 13T94 176l5 18 2 6q3 7 4 11 4 1 7-4t6-5h1q14 1 20 1 10-1 16-5 11-9 21-29 1 4-3 13l-4 8-2 9q-2 10-4.5 11t-10.5 0l-15-2q-10-2-13-1-4 0-5 1l-8 8q-1 1-1 3t3 5l8 11q5 7 5.5 9.5t1 10 1.5 10 4 5.5l3 4 5 8q6 11 11 15l1.5-.5 1.5-.5q-4-11-4-27v-21q-1-3-3-7.5t-2-7.5q14 17 9 39l28 20q4 3 9 12l4 7q8 11 12 14 12 12 16 19l1 1h1q4-7 12.5-11t11.5-4 6 2l3 2 3 1v-2q-2-6-22-16-2-2-7-3-8-2-10-5 13 1 31 9 10 5 29 16l3 2 18 13q4 2 10.5 2H325q1-1 4.5-3t5.5-2l4 3q6 4 7 8-6-3-9.5-3.5T327 355q-9 3-18 1 2 4 7 11 5 5 7 8.5t4 11.5l4 11q2 5 10 20l1 2q8 14 15 15-3-9-1-17 1-5 4-12.5t4-11 1-8.5v-7q3 0 8 2t7.5 1.5 8.5-4.5q10-6 16-6 3-1 12 1l5 1q-13-18-36-28zM135 134q-2 1-6.5 1.5T121 134t-4-7 1.5-7 7.5-1q1 0 2 1l5 3q2 1 3 4.5t-1 6.5z"/></svg>