<svg xmlns="http://www.w3.org/2000/svg" viewBox="0 0 501 512"><path d="M388 327l-11-11-20 20q-2 2-13 0-2-1-3 0l-7 7h-1q-1 0-2-1t-1-2v-1l5-5-6-6-1-5q-2-5-1-9 0-8 3-14l-5-1q-6-2-13-6-10-5-20-14-20-18-52-49-36-36-55-57.5T145 126l-17-21-66-32 32 66 21 17q25 21 46.5 40t57.5 55q32 32 49 52 9 10 14 20 4 7 6 13l1 5 4-2q5-1 9.5-1.5t9.5.5l5 2 10 10-2 3q-1 1 0 2 2 11 0 14l-20 19 11 11 27-27 56 50 3 4v1q0 1 1 1l1 2q4 4 4 5 2 4 2 13h2q4 1 7 0 8 0 13-5t5.5-12-.5-10h-5q-5-1-7.5-2t-7.5-5q0-1-1-1l-1 1-6 5q-2 2-3.5.5t.5-3.5l5-6q-5-5-46-51l-10 9q-2 3-4 1.5t-1.5-3 1.5-2.5zm-179-48q-11 9-20 14-7 4-14 6l-4 1 1 4 2 10q0 7-3 14l-6 6 5 5v1q0 1-1 2.5t-2 .5l-7-7h-1q-1-1-3 0-11 2-13 0l-20-20-11 11 38 37q2 3 0 5t-5-1l-9-9q-38 42-47 51l6 6q1 2-.5 3.5T91 419l-5-5-1-1q-1 0-2 1l-2 1q-4 4-5 4-4 2-13 2v2q-1 3 0 7 0 8 5 12.5t13 5.5q4 1 7 0h2v-5q1-5 2-7.5t5-7.5q1-1 1-2l4-4 55-50 27 27 11-11-20-19q-2-3 0-14 1-1 0-2l-2-3 10-10 5-1q5-2 9-1 8 0 14 2l1-4q2-6 6-13 5-10 14-20l15-16-23-22-16 14h1zm163-174q-8 11-17 21-21 25-40 46-21 24-61 64l22 21q39-40 63-61 21-19 46-40l21-17 32-66z"/></svg>