<svg xmlns="http://www.w3.org/2000/svg" viewBox="0 0 501 512"><path d="M250 146l-4 8q-4 9-4.5 17.5T246 189l4 8 4-8q5-9 5-17.5t-5-17.5zm175 181q0-3 1-5 1-6 0-12-1-8-6-15-6-10-14-14-4-2-6-2l-4-12q-5-13-15-22-13-12-32-12-13 0-26 7l1-4 1-8v-17l-5 1q-5 3-11 8l-7 7q-2-16-11-25.5t-18-9.5-13.5 4-7.5 10l-2 5-2-5q-3-6-8-10t-13.5-4-17.5 9.5-12 25.5q-1-2-7-7-9-8-15-9v5q-1 6-.5 12.5T176 239v1q-12-7-25-7-27 0-42 23-7 12-9 23l-3 1q-4 1-8.5 4.5t-9 10.5-5.5 15q-1 6 0 12l1 5-6 6q-7 7-7 16.5t7.5 16T86 372t17-5q2 3 8 5 4 2 11 3t9.5 1 4.5-1l2-1-5-2q-5-2-9-6.5t-4-10.5q0-11 17.5-20t42.5-9q16 0 28 4 8 3 17 9 8 4 12.5 9t5.5 8l2 7 3 3 2 1 1-1q2-2 3-3.5t2-3.5v-3q4-8 18-17 9-6 18-9 11-4 28-4 24 0 42 9t18 19-10 16q-4 3-9 4l2 1q2 1 5 1t10-1 11.5-3 7.5-5q8 5 16.5 5t16-6.5 7.5-16-6-17.5zm-33-28q3-3 7-10l5 2q5 3 8 8 4 9-1 18l-4-3-10-4q-7-2-13-3zm-88-55q1-6 3-9.5t6-6.5l4-3v5q0 5-2 8-3 7-12 15zm44-3q13 0 20 8 4 3 5 7l-9-1q-9 0-16.5 1t-15.5 6l-7 4h-13q-5 1-11 4l7-7q9-9 17-14 12-8 23-8zm-92-21q3-7 7.5-11.5t8.5-4.5q9 0 15 14 4 11 4 24 0 24-33 57 16-25 16-46t-19-27zm-6 17q2 0 4.5.5t5 5T262 256q0 13-6 28l-6 11-6-11q-6-15-6-28t6-17q3-2 6-2zm-22-33q4 0 8.5 4.5T244 220l1 6q-19 6-19 27t16 46q-33-33-33-57 0-13 4-24 6-14 15-14zm-45 21q2 1 4 3 4 3 5.5 6t3.5 10l1 9q-9-7-12-15-3-5-2-13zm-30 16q10 0 22 8 8 5 17 14l7 7-11-4h-13l-7-4q-8-5-15.5-6t-16.5-1l-9 1 2-4q3-4 8.5-7.5T153 241zm-65 58q3-5 8-8l5-2 7 10q2 3 8 8l-13 3-10 4-4 3-2-6q-1-7 1-12zm9 53v5q-15-6-12-19 2-8 11.5-13t20.5-7q8-1 18 1-38 14-38 33zm44-69q-2 5-1 13v7l-7-2q-7-3-12-8-9-10-9-19h1q-1-2 3.5-6t11.5-5q9-2 19 1 5 2 8 6l-5 3q-6 4-9 10zm32-8q10 0 24 9l11 9-10-1q-11-1-19-.5t-15 3.5l-7 2v-6q0-6 3.5-11t12.5-5zm39 33q-2 2-3 4l-2 1-11-2q-14-1-29 0 11-11 30-11 15 0 21 6zm52 17q-5 4-10 10l-4 6-4-6q-5-6-10-10-7-5-15-7l3-1q3-2 7-2t8 3 8 10l3 5 3-5q4-7 8-10t8-3 7 2l3 1-5 2q-5 2-10 5zm29-12l-2-2-3.5-2.5-5.5-2.5q6-6 21-6 19 0 30 11-15-1-29 0zm49-16l-6-2q-7-3-15-3-12-1-29 1l11-9q14-9 23.5-9t13 5 3.5 11zm17-14q-4-9-14-13v-1l2-2q3-2 7-3 8-4 18-2 7 2 11 6t4 6h1q0 8-9 19-5 5-12 8l-7 1v-7q1-7-1-12zm44 74v-5q0-19-38-33 9-2 18-1 11 2 20.5 7t11.5 13q2 13-12 19z"/></svg>