<svg xmlns="http://www.w3.org/2000/svg" viewBox="0 0 501 512"><path d="M375 326q-1 0-1 1l-32 32q-1 1-3 1t-2.5-.5 2.5-3.5l29-30q1 0 1-1l-15-5q-13-5-23-14 0-1-1 0l-10 10q-2 2-3.5 2t-2.5-.5 2-3.5l11-12q1 0 0-1-5-6-7-12l-38-27q-42-30-62-48L101 108v-6L67 75q-2-2-4-1v1q0 2 1 3l27 34h6l106 119q18 20 48 63l27 38 6 2q7 4 12 10 8 9 13 21 7 17 8 42v4q2 2 4 0l26-26q3-3 5 0l5 4q2 2 12 0l32 32-1 2q0 3 .5 6t3.5 6v1q0 2 1 3t6 0h3q6-1 8 0l12 9q1 1 3 1h1v-1q0-2-1-3l-9-12q-2-2 0-8v-3q1-5-.5-6t-3.5-1l-14 14v-3q0-3 4-6l5-5q2-2-1-3t-6-1l-2 1-32-32 1-5q0-6-1-7l-3-3q-1-1-2 0l-7 7q-2 2-4.5 2.5t-3 0 .5-2.5l41-40q2-2 0-4h-4q-12 0-21-2z"/></svg>