<svg xmlns="http://www.w3.org/2000/svg" viewBox="0 0 501 512"><path d="M287 108h-4q-5 1-8.5 2.5t-4.5 6 1.5 7.5 8.5 2 7-10q0-4 2-5 3-4 5-2l2 2q4 7 8.5 8.5t14 3T336 124q22 8 46 1l2 2q7 7 12 7.5t8.5-2 5.5-3.5q6 2 15 0l6-2q3 3 5.5 8t.5 12q-1 5-11 14-13 13-16 22 0 5 5 4 2-1 3-.5t1 3.5q-17 13-23 33-2 6-9 12 0 6-1 16v6q-6 8-9 25-2 12-4 37 0 4 3 11l1 4q2 27 15 41 0 3-2.5 4t-2.5 6 1.5 7 5.5 4h1l1 4q1 4 2 6 14 11 25 22-2 11-10 17-7 1-15-6-4-3-6-3.5t-1.5 4-.5 5.5q-4 0-9.5-3.5T371 438q-2-6-8-11-4-3-12.5-7t-12.5-7q-4 1-1 3.5t1 4.5q-22-6-35-6-21-2-33 5-6 2-10 8.5t-9 7.5q-7-1-11-10l-3-4q-3-1-6-3-6-4-22-5-18 0-33 3-4 1-9-2l-3-2-11 5q-10 5-14 8-6 5-9 13-4-1-9 2t-8 3.5-2.5-3.5-.5-5q-3 1-8 5-7 5-15 4-6-5-8-17l3-3q13-14 22-19 0-5 3-10 0-1 2-2 4-2 6-9 1-3-2-4.5t-3-6.5q0-2 4-8 8-13 9-29 1-35-1-64l-2-4q-2-8-5-11 0-3-1-9.5t0-11.5q-3-7-10-12-7-26-21-33 0-3 3.5-4t2.5-5q-1-7-6-13-2-4-9-10-8-8-11-13-1-8 4-16l2-4q2-1 9 1t11 1.5 7.5 3 7.5 3 9-6.5q3-3 5-4 19 3 40 1.5t36-8.5q5-2 9-6 2-2 3.5-3t6.5 0q-6 7-1.5 11.5t11.5-.5q2-1-.5-7t-6.5-9l1-1q7-7 11-10 7-5 14-7 1-1 4-3.5t3-4.5q11 7 15 16 14-1 23 14zm-103 59l-2 2q-4 5-5 9 1 7 10 14t10 13q0 2-3.5 1.5T192 210t6.5 4 10.5-2q7 8 12 8 1 1 3 3.5t5 3.5q3-5 2-8.5t-4.5-7.5-4-6.5-2-8.5-1.5-11q-4-1-7-4l-1-2q1-5-3.5-9t-5.5-7q-6 1-12-7-3-4-4-4-3 6-2 15zm128-8q-2 3-5 1l-3-2q-2 2-8.5 3.5T287 165q-11 10-11 17t-2.5 14.5T272 215q9-9 12-10.5t7.5-2 7.5-4 1-11.5v-2q16 0 18-25v-2q-1-4-2-4-2 5-4 5zm-178 50q2 1 6.5 1.5t7.5 1.5l9 3q12 6 16 4-1-4-6-8.5t-5-7-1-4-1-4.5q-4-2-7-8.5t-5-8.5q-5 0-13-4-5-2-8-3 0 13 1.5 24t5.5 14zm242-36q-1-2-3.5-1t-10.5 3-10.5 4-3.5 6.5-5 8-5.5 11 2.5 9.5 10-2q3-3 5-2 7 1 13-3 2-2 2-10-1-15 6-24zm-227 83q-1 17 5 17 8 18 19 22 1-4-1.5-7t-2.5-5q7 3 9-2 1-1 1-5.5t1-4.5l2-1q3-1 4-3-2-4-5.5-6t-5.5-4v-1q-5-6-8-8-5-4-11-4-2-2-7-4t-6.5 1 2.5 8 4 7zm197-12q-4 0-7 1l-4 1q-7 3-7 11-3 1-6.5 4t-4.5 6q4 1 4 7.5t4.5 8 12.5-5 14-6.5q-2-11-1-17 1-3 4.5-5.5t1.5-6.5q-4-6-10 2h-1zm-82 7q6 13 6 23 0 6-3 15.5t-1 15.5q4-1 8-6.5t8-8.5q0-9 7-13 5-3 6-7l-4-3q-5-5-5-9-1-1-4-1.5t-4-1.5l-3-3-3-3-2-4.5-6-3.5v10zm-55 23q1 3 5.5 6.5t3.5 8.5q9 14 18 15-2-23-12-42-6-1-10 2.5t-5 9.5zm124 43q-1 0-2 1-6 4-8 8l-4 11q-4 11-5 16-1 8 3 9 3-2 7-8 3-5 5-7l12-8q2-8 9-12 4-3 5-7-6 1-8.5-1.5T341 311q-4-8-8-8 0 3-.5 7t.5 7zm-182 7q0 1 2 5l2 7q1 5-1 11 4 7 8 9t11 0l2 2q8 7 11 6 0-2-2-8.5t-2.5-10-4.5-6.5l-2-2q0-1 3-3t2-5l-3-2q-14-9-23-12-4 6-3 9zm56 13q-4 7-3 9.5t5 5.5l4 2q0-5 4.5-13.5T223 325q-4 0-9.5-4.5T203 317q-3 6-2.5 9t3.5 6 3 5zm79-14q-1 2 .5 4t.5 5q-8 5-10 15 0 11 6 11 3-2 3.5-5.5t-.5-7.5l4-1q4-1 4-2-1-6 3-11 2-2 2.5-4t.5-7v-3q-6 0-8.5 1t-5.5 5zm40 42q-3 8 1 10 0 2 1 2l4 1q1-3 5-10l3-4q3-5 4-7.5t-1-4.5q-5-1-9.5 3t-7.5 10zm-110 20q0-3-1.5-7t-.5-7q-2 1-6-.5t-7-.5q-2 7 2.5 11t12.5 4zm70-13q0 4 3.5 6t8.5 2q3-4 3-9-4-1-8 0t-7 1zm-45 24v1q1 5 2.5 7.5t6.5 2.5q2-3 6-8t5-9q-3-1-7 2l-3 1-2-2q-1-4-5-4 0-2-2-4t-5-2l1 3q3 8 3 12z"/></svg>