<svg xmlns="http://www.w3.org/2000/svg" viewBox="0 0 501 512"><path d="M334 266q-7-9-24-19l-9-6-178-127q-12-10-6-21 9-15 23-11 6 1 15 8l208 147q10 7 15 14 8 9 8 16t-13 14h-1q-12 7-18 9l-2 1q-21 7-26 10-7 4-5.5 8t11.5 14l15 17q12 15 14 20 4 7 1.5 13.5T349 396l-5 7q-12 18-19 27-9 11-15 11t-15-11q-12-13-23-33-6-11-18-35-8-15 4-22 14-8 22 9 5 10 16 26 8 13 11 14t11-6q16-13 4-26-9-10-15-19-17-24-13.5-37t29.5-27q7-4 11-8zm-128-2q12 4 17 10t4 19q0 5 4.5 8.5t9 2.5 8.5-7 5-11q1-8-5-15-3-4-13-11h-1q-33-23-88-62l-6-4q-4-2-7.5-6t-5-11.5 0-13 7.5-5 11 3.5l52 36q41 30 62 44 11 7 14.5 16t.5 22q-6 27-15.5 36.5T226 330q-11 1-17-2t-7-15v-5q-1-15-1-22 1-12 5-22z"/></svg>