<svg xmlns="http://www.w3.org/2000/svg" viewBox="0 0 501 512"><path d="M144 138q0-2 1-2 25-22 24-22 2-2 4-1 5 3 9 3 13 0 16-4l10-12q7-10 11-13.5T248 74l3-1q2 0 3 2l4 6-.5 1.5-.5 1.5q-12 2-25 11-5 3-8 10-2 4-1 20v2q0 4-6 12-4 5-4 8t6 15l1 3-1 5 6 8q0 1-2 4l29 32q1 1 1 2l-10 14q-1 2 0 3.5t2-.5l6-4 6-7q1-1 2 0l36 41q2 2 1 3-8 8-14 15-1 0-.5 1t1.5 1q3-1 11-7l5-5q1-1 3 0l47 51 64 66v2l-5 4-15 18q-1 1-.5 1.5t2.5-.5l1-1q10-7 14-11 3-2 5-5l2-2q1-1 2 0l12 13q2 3 2 6l-1 6q-2 19-3 20l-2 2q-7 6-8.5 6.5t-15 0-14.5-1-42-55.5l-65-89-82-102-2 1q0 1-2 0l-7-7q0-1-1.5 0t-2 .5-8.5-5.5l-8-5q-2-1-3 0l-26 24q-2 2-7 16-8 22-15 34-17 30-42 55-2 1-3 0l-6-6v-2q27-38 35.5-59.5T113 198q1-7 2-8l6-9 5-7v-3q0-4 2-5 17-17 17.5-21t-1.5-7z"/></svg>