<svg xmlns="http://www.w3.org/2000/svg" viewBox="0 0 501 512"><path d="M405 380q0-1-8-7-14-11-22-19-32-33-73-81-29-34-43-52-24-32-41-59l-5-7q-2-3-10 3l-2 1q-3 2-4 1t1-3l9-7q10-8 11-9 0-4-7-15.5T200 115q-2 0-10 4l-14 6q-2 1-2.5-.5t5.5-6 6.5-6-3.5-9.5-6.5-9-14 5.5T150 109t14 21q-14 6-25.5 7.5T107 137q3 15 12 30 7 12 19 24l1 2q-1 1-8-5t-15-16q-11-15-18-35-12-2-25-11-6-4-10-8l1 11q2 14 8 29 8 21 23 40 12 17 29 30 11 10 24 18l11 5-1-10q-1-13 1-24 2-16 9-28 8-14 21-25 24 31 64 82l20 26q42 53 53 69 13 17 26 39 16 25 19 36h1q4 11 6 12t8.5-5.5T397 407q10-19 8-27zM232 233q-57 70-106 121-8 8-22 19-8 6-8 7-2 8 8 27 4 9 10.5 15.5t8.5 5.5 6-12v-1q4-10 20-35 13-22 25.5-39t57.5-74l14-18q1-1 0-3l-11-13q-1-2-3 0zm206-115l-10 8q-13 9-26 11-6 19-17 35-8 10-15.5 16t-7.5 5l1-2q12-12 19-24 9-15 11-29-19 1-30.5-.5T337 130q14-18 14-21t-11.5-9.5-14-5.5-6.5 9-3.5 9.5 6.5 6 5.5 6-2.5.5l-14-6q-8-4-11-4.5t-10 11-7 15.5q0 1 11 9l9 7q2 2 1 3t-4-1l-2-1q-8-6-11-3l-7 11q-15 24-24 35-2 2 0 4l11 13q1 2 3 0l42-54q13 11 20.5 23.5T342 216q2 12 1 25l-1 10 11-6q12-7 24-17 17-14 29-30 20-27 28-56 4-15 4-24z"/></svg>