<svg xmlns="http://www.w3.org/2000/svg" viewBox="0 0 501 512"><path d="M311 361q3-2 7-5l10-11q7-8 13-18 18-31 18-65 1-48-31-98-27-42-72-64-33-16-71-21-19-2-32-1l13 2q16 4 32 12 22 10 42 26 25 20 45 47l-9-3-11-3q-15-3-30-2-22 1-42 8-24 9-45 27-24 22-42 57t-20 73q-2 31 7 62 6 23 16 44l9 16-4-12q-5-16-6-33-3-25 1-50 5-32 19-63l3 15q2 7 5 14l3 6q16 33 46 53 42 29 106 26 38-2 72-19 28-14 51-37 16-17 29-36l10-17-9 10q-11 12-25 22-20 15-44 24-30 12-64 14zm-70-18q-29 0-50.5-21t-21-51 21.5-51 50.5-21 50.5 21 21 51-21 51-51 21z"/></svg>