<svg xmlns="http://www.w3.org/2000/svg" viewBox="0 0 501 512"><path d="M425 336q-5-6-11-9-2-2-4 0l-25 25q-1 1-3 2l-2-1v-1q0-2 1-3l10-10q12-13 14-16t-1-5q-10-9-12.5-10.5t-4.5-.5v4q0 6-3 9.5T362 343l-1 1q-10 10-9 29v3.5l-2-.5q-6-1-11-1t-12 2l-6 3 4-4q5-5 11-6 3 0 11 1v-4q-1-5 0-9 2-8 8-15l17-18q2-3 1-6l-1-2q0-3 .5-5.5t1.5-1.5q4 3 6 .5t-1-6.5l-51-44q-2-1-3.5.5t-.5 3-1 2-5 0-5-2.5q-5-5-12.5-5t-12.5 6q-9 9-6 29l4 18-6-2q-7-3-13-4.5t-12-1.5h-6l5-2q5-2 10.5-2t12.5 2l-2-6q-1-7-1-12 0-17 13-27 7-6 18-5 4 0 10 3l4 3 1-3q1-3 .5-5t-2.5-5l-3-5q-2-3-2-9 0-3-1-3-2-2-14-1l-2 1q-1 0-4-3l-2-2q-4-3-5-2t-1 4v3q0 1-5 4l-10 9q-12 11-13.5 18t.5 20v1l-7-2q-8-1-13-1t-12 1l3-3q5-3 9-4t12 1v-9q1-11 6-19 4-4 14-12l4-4q5-5 4-11 0-3-3-8l-2-5q-1-3-2-16-1-8-1-9l-11-24q-6-16-14-20.5t-27-3.5h-3q-5 0-19-3h-1q-12-3-19-1t-19 19l-3 3q-1 3-5.5 5.5T141 158t-1 6 2.5 5.5 6.5 3.5l3 1h-3q-4 1-8-.5t-6-6.5q-2-2-.5-8t2.5-8l4-4q10-7 13-11l7-10q3-5 5-6 4-4 8-4t7 2h1q7 3 10.5 3t8.5-.5 10 1.5l3 1q5 2 9.5 2.5t6-.5-.5-5-5-6q-5-4-24-24l-2-3q-12-13-31-13-7 1-13 5-4 3-9 9.5t-8 7.5h-2q-13 1-21 9-6 7-7 21v2q0 1-6 7l-8 8q-5 6-6 11-2 8-1 16v6l-4 4q-10 11-9 28 0 10 6 18 3 5 13 12l4 4q9 8 26 15 13-1 18.5-4t8.5-11l2-3 2-1q11-4 13-5 5-5 8-12l1-6 6-2q7-3 9-8t3-11v-4q2-7 5-13l-7-6q-4-4-9-5l3-3q1-1 1-3l5 3q6 4 11 5 8 1 15 1 3-1 3.5 1t0 3.5-1.5 1.5q-5 0-7 .5t-4 4-3 6.5l-1 4q-5 14-6 19-3 20 3 31 3 6 9 11l5 5q0 1-2.5-.5T206 252q-6-5-9.5-10t-4.5-12l-1-12q-3-2-11 6-2 2-5.5 7.5L171 237l-4 2q-9 2-14 5-1 1-5 6t-5 6q-4 2-17 3 2 6 5 10t10 10 12 7.5 14.5 2T185 292q4 2 8 7l2 2 5-3q7-3 8.5-2t-.5 3l-9 10q-1 2-.5 4t1.5 4l1 1q2 1 2 2v2q-3 11 0 14 1 1 3 1 6 0 9 2l5 3q3 3 4 3 4 1 6-1l55 62q2 2 1.5 6.5t.5 6.5l25 28q2 2 5 2l2-1-1-2q1-4 4-7l27-27q9-9 9-25 0-4 .5-4.5t3.5-.5q16 0 25-8l30-30q3-3 7-4h3v-1q0-2-2-3z"/></svg>