<svg xmlns="http://www.w3.org/2000/svg" viewBox="0 0 501 512"><path d="M250 73q-2 2-4 3-6 4-11 13l-3 6q-7 17-10 17h-68q-4 0-16.5-15.5T121 81q-6 0-12.5 6.5T102 105v128q0 48 16 89 16 38 44 65 24 23 59 44 17 11 29 17v1V73zm-15 322q-6-3-11-6-13-9-25-19-16-14-29-30-15-20-23-47-6-21-6-40V143h94v252zM379 80q-4 0-16.5 16T346 112h-68q-2 0-10-17l-3-7q-5-8-10-12l-5-3v375l14-7q18-11 34-22 23-16 40-32 28-27 44-65 17-41 17-89V105q0-11-6.5-18T379 80zm-49 260q-18 23-43 41-12 9-21 14V143h93v110q1 19-6 40-7 27-23 47z"/></svg>