<svg xmlns="http://www.w3.org/2000/svg" viewBox="0 0 501 512"><path d="M314 301q-3-1-6-3-7-5-18-5-26 0-44.5 20T227 360.5t16 44.5 44 21q6 1 10 6.5t3 13.5-9.5 9-20.5-2q-34-7-54.5-31T195 358q0-24 11.5-45.5T238 277q13-7 14-26h1q3-62 10-137l2-14q1-16 2-21 2-8 5-8t5 8q1 5 2 21l2 14q5 53 9 113 2 17 6 29.5t8.5 15L318 279q17 10 21.5 10t1 4.5-11 7.5-15.5 0zm-181-43q2-3 22 11l10 7q6 5 14 7l3 1q6 0 11 3.5t3 5.5q-17 21-21 51-8 50 31 94l1 2q-1 6-12 0t-15.5-10.5T168 416q-3-4-8-1l-10 7q-20 14-22 11.5t12-22.5l9-14q3-6 2-15-2-5-3-11v-1q-2-10-7-12l-18-4q-15-2-21-4-9-2-9-5.5t9-5.5q6-2 21-4l18-4q4-1 7.5-4.5t5.5-7.5l5-13q-1-7-7-16l-7-10q-15-20-12-22zm120 102q0-13 9.5-22.5T285 328t22.5 9.5T317 360t-9.5 22.5T285 392t-22.5-9.5T253 360z"/></svg>