<svg xmlns="http://www.w3.org/2000/svg" viewBox="0 0 501 512"><path d="M387 381q-32 37-76.5 51.5T219 438q-18-4-32-10-26-12-12-26 6 5 52 8 32 2 63.5-9.5T347 365q14-16 17-37 3-23-11-42-8-11-22.5-16.5T306 268q-13 5-15 20l-1-1 6 41q3 13-2 17-4 3-13 3h-61q-9 0-12-3-5-4-3-17l2-17q2-16-1-24t-10-10q-4-1-15-2-22-1-35-7-5-3-14-11-12-12-17-11-8 2-9 30 2 39 24 66 6 6 7.5 9.5t.5 8.5l-1 2q0 6-5 7-7 4-22-11-25-28-34.5-67T74 212.5t34-68.5q38-45 95.5-57.5T314 97q12 5 19.5 12t5 10.5-13.5 3-21-4.5q-35-12-75-3-13 3-32 19l-10 8q-8 5-20 10-10 4-15 8l2-2q-4 3-7 6l-5 6-3 3q-8 13-5 26.5t14 24.5q27 20 49 16t29-27q12-49 24-56h1q13 8 27 65l1 5q1 6 3 8.5t6 2.5l14-3q7-2 12-2.5t15 .5q22 2 47 21v1q13 14 15-11v1q-2-25-10-56-4-16-4-21 0-9 5-13 7-2 20 18 31 49 27 106.5T387 381zm-125-81q-5-68-12-75-6 7-12 75-1 12 7 12h11q8 0 6-12z"/></svg>