<svg xmlns="http://www.w3.org/2000/svg" viewBox="0 0 501 512"><path d="M420 222q-4-5-8-9-18-5-24 9-3 6-3.5 16t.5 13q6 15 6 24 0 16-11.5 28T351 315t-29-12-12-28q0-26 16-44 10-10 35-26l18-11-2-2q-19-14-38-21-32-11-89-11t-89 11q-19 7-38 22l-2 1 18 11q25 16 35 26 16 18 16 44 0 16-12 28t-29 12-28.5-12-11.5-28q0-9 6-24 1-3 .5-13t-3.5-16q-6-14-24-9-4 4-8 9-7 11-12.5 25.5T62 275q0 36 25.5 61.5T149 362t61.5-25.5T236 275q0-21-9-39t-25-30q18-7 48-9 30 2 48 9-16 12-25 30t-9 39q0 36 25.5 61.5T351 362t61.5-25.5T438 275q-1-13-6-27.5T419 223z"/></svg>