<svg xmlns="http://www.w3.org/2000/svg" viewBox="0 0 501 512"><path d="M200 306q-1 0-4-4-6-9-10-12-13-9-27-9-12 1-16 7h-1l-1-2q-3-6-8-10-9-8-19-8.5t-14 8.5h-1q-1 0-6.5-5t-7.5-7.5-2-9-1-9.5q-3-8-14-18-1-1-1-2l-1-2 4 1q4 2 7 4t7.5 7 7.5 7q11 7 13 6t2-4.5-1.5-5.5-5.5-6q-10-11-10-17.5t4.5-16T99 184q0-10-4-19-3-6-6-8.5t-4-6.5l3 2q4 2 7 4 13 10 23 25 4 6 3 19v10q1 8 5.5 15.5t9.5 9.5 12 2q2 0 4 1l1 1-2 1q-3 2-4 4-2 9 10 21 6 6 13.5 8t12.5 5q8 7 12 15l1 2q2 3 3 7zm38-233l-6 8-1 2q-22 21-21 42 0 17 6.5 31.5T233 180q18 18 20 30 0 9-1 18l-1-1q-2-1-3.5-.5t-6 4.5-6 7.5-3 9-.5 7.5l-1 5-1-4q-2-5-4-8l-4-5q-11-14-12.5-21t2.5-19q2-7 2-9 0-7-3-12l-3-3 2 11q1 6-6 16t-6 21q2 16 17 36 13 17 20 43 1 4 1 7l-2 3-3-9q-5-9-22-26-13-14-26.5-17t-17.5-9q-3-3-4-9t0-8l2-4q4-8 4-14 0-19-11-34l-5-8 2 1q3 1 6 3l3 3q10 8 13 14.5t4 12.5l1 5 3-8v-12l-1.5-16-7.5-19.5-11-18.5q-7-9-18-18l4 1q5 2 12 5 17 9 24 17 2 3 5 9l3 5v-7l-6-13q-1-4 0-11t6-14q11-17 22-27 9-8 17-13zm41 136q-4 5-9 9-7 9-13 17-2 3-4.5 9t-2.5 8h1q5 4 5.5 8.5t-2 8-5.5 3.5-5-3l-1-3q-1 0-3 4.5t-2 9.5q0 9 7 18l9 13 1-2v-3l-2-3q-2-3-2-7 0-7 4-13 1-2 3.5-3.5t4-.5.5 4l-1 4h1q2-1 4-3 8-7 9-16t-4-14q-8-8-8-14 2-9 8-18l2-3q5-8 5-10zm2 29l8-4q8-5 12-10l7-7 13-13q6-7 8-14 1-4 1-12v-5l2 5q1 7 1 13-2 11-10 22-4 6-11 13t-9 8l-6 3 2 3q1 2 1 5 0 10-6 14-9 6-10.5 8t-1.5 4v2l4-3q3-2 4.5 0t1.5 4-1 3l-9 12q-3 5-4.5 10.5T276 309v4l2-5q2-6 5-9 9-14 19-19 8-4 17-6l2-6q1-7 4.5-11.5t9-7.5 9.5-3l11-1q7-3 13.5-10.5T376 219l-3 3q-3 4-5.5 5.5T355 230h-4q-3 1-7 4l-4 3 1-4q4-9 13-13 11-5 16-10.5t6-18.5v-7q3-12 13.5-21.5T412 150l-8-1q-8 1-18 5-12 6-20 15l-1 1q-6 9-12 7t-6-12v-19q0-4-4-12t-9-14q-8-12-15-18.5T304 91l1 2q1 2 3 4 7 7 10 13 5 11 5 25.5t-8 25.5q-4 5-12.5 13t-8.5 11q-1 5 2 12 2 5 1 11-1 8-4 13zm36 52q2-3 3-6 4-6 8-10 9-9 24-15.5t21-17.5l4-6q7-8 8-15.5t.5-15-1.5-9.5l-2-4 2 2 4 4q6 9 7.5 23.5T393 243l-6 8h10q8-1 12-6l3-4q3-5 7-8.5t10-4.5l4-1-4 5q-6 5-8 9l-2 5q-2 9-6.5 13t-14.5 5h-3q-8 1-14 9-2 2-4 6l-1 4-11-6q-4-1-11-1.5t-11.5 1T332 281t-7 4zm67 66q-3-10-13-10-6 0-9 5-3 4-5 11l-3 7q-1 2-4 3.5t-6-.5q-4-3-1-12 1-4 10-14l4-4q13-15 13-29 0-9-5.5-15t-14.5-6q-15 0-23 11-1 2-3 0l-4-6q-3-2-6-3t-4 1l1 2q2 2 1 4v1q0 5-16.5 12t-47.5 7h-1q-31 0-47.5-7T182 302v-1q0-2 1-4l2-2q-1-2-4-1t-6 3l-5 6q-1 2-2 0-8-11-23-11-9 0-15 6t-6 15q0 14 13 29l4 4q9 10 11 14 3 9-2 12-2 2-5 .5t-4-3.5l-3-7q-3-7-5-10-4-6-9-6-11 0-14 10-2 5 0 9t4 4l1-3q0-3 2-5t6-2 6 6q3 10 7 14 7 7 14 7t9-3l1 4q1 5 2 9 4 9 11 14 4 3 9 6l8 4 8 6 3 3v5q0 2 4.5 5.5T219 445q11 3 28 3t28-3q9-2 13.5-5.5t4.5-5.5v-5l3-3 8-6 17-10q7-5 11-14 2-4 2-9l1-4 2 2q2 1 6 1 8 0 15-7 4-4 7-14 2-6 6-6t6 2 3 5v3q2 0 4-4t0-9zm-213 6q-2 3-4 5l-2 1v-5q-1-6-7-14l-3-3q-9-11-10.5-17t.5-11 6-7q7-3 15.5 4.5T175 331q0 6-3 6t-4-1.5-1-3.5h-1q-2 0-1.5 6.5t5.5 8.5h6v4q-1 6-5 11zm159 6q-1-1-2.5-2t-3.5-4q-4-5-5-11v-4h5q6-2 6.5-8.5T328 332l-1 4q-1 1-4.5 1t-3.5-6q0-8 9-15.5t16-4.5q3 2 5.5 7t1 11-10.5 17l-3 3q-9 12-7 19z"/></svg>