<svg xmlns="http://www.w3.org/2000/svg" viewBox="0 0 501 512"><path d="M437 261q0-6-1-13-1-16-5-31-6-23-16-41-13-24-37-45t-36-18q-7 2-12 7t-7 15l-2 11q-2 11-5 16-3 9-11.5 18.5T282 195q-10 3-22 4h-10q-10 0-21-2-22-3-33-16-9-10-13-19-2-5-4-16l-2-11q-4-18-20-22-11-3-35 18t-37 45q-10 19-16 41-4 15-6 31v13q0 13 3 29 6 31 19 56t37 45.5 36 17.5q7-2 12-6.5t7-15.5l2-11q2-10 5-16 3-8 12-19 11-12 34-16 11-2 20-1v-1q11 0 22 2 22 4 32 16 9 11 12 19 3 5 5 16l2 11q4 18 19 22 12 3 36-18t37-45q14-26 19-58 3-16 3-27h-2 2zm-57 63q-7 13-16 24l-8 9-3-10q-5-12-12-22-9-14-22-22-22-14-48-18-13-2-21-1-10 0-22 2-25 3-47 17-18 12-29 34-6 11-8 20l-8-8q-9-11-16-24-9-18-12-43-2-12-1-21h-1q0-8 2-22 3-24 12-41 11-21 24-33l3 10q5 12 12 22 9 14 22 22 22 14 48 18 12 2 21 1 9 1 22-1 25-4 47-18 18-12 29-34 6-11 8-20l8 9q9 11 16 24 14 26 14 63v1q-1 37-14 63v-1z"/></svg>