<svg xmlns="http://www.w3.org/2000/svg" viewBox="0 0 501 512"><path d="M437 431q-2-2-37-40v-14q0-2-4-6-4-7-4-11t4-8l3-3-5-5q-5-5-9.5-5t-7 4-6 4-4.5-2-.5-3.5 3-4l4.5-4.5q2-4 2-17 1-7-2-19-2-7-3.5-11t-6.5-3q-1 0-7.5 5.5t-8 6-2.5-.5-1-2.5 9-12.5l6-7q3-4 2-8t-8-16.5-11-16-8-.5q-2 0-22.5 20T290 272t-2-2q0-2 18-22t20-23q4-5 1.5-10.5t-12-14.5-15-11-8.5 0l-50 47q-1 1-1 .5v-2l19-24 22-26.5 1-7.5-11.5-10L258 159q-6-1-10 0l-11.5 11.5-12 11-2.5-.5-.5-3 13.5-19h1q1-2 1-5.5t-3-4.5q-5-3-20-4.5t-20 .5q-2 1-9 7l-5 4q-6 2-5-4 1-2 4-5 5-4 5-8.5T174 123l-3 4q-5 4-8.5 4.5T152 127q-4-4-6-4l-14-1-19-17Q93 87 92 86q-5-1-6.5.5t0 5T122 132l1 14q0 2 3 6 6 7 5 11-1 6-8 12l6 5q8 6 11 6 1-1 3.5.5t3.5 3-2 8.5-3 10 3.5 17 5 15.5 5 1 5 1-1 6-2.5 6.5q0 6 13 27 15 22 35.5 42t40.5 31q16 9 24 9 6 0 11-5 1-2 2-1.5t.5 4.5.5 5q5 9 28 11 18 1 22-2 1-1 2-1 4 1 3 7l-1 2q0 6 10 16l4-4q4-4 8-4.5t10 4.5q5 4 7 4 4 1 14 1l19 17q19 18 21 19 4 2 5.5.5t.5-6.5zm-130-44q-2-3-8-4.5t-9 .5l-8 4q-30 18-55 19-33 1-51-34-5-8-16-39l-7-17q-16-43-47-47-20-2-33 10-10 9-11 20 0 6 2 8.5t5 3 4-3.5q3-10 9-16 9-9 23-7 17 2 29 22 6 11 16 40 7 21 11 29 15 28 35 39 16 9 37 6 39-4 72-29 1-1 1.5-2.5t-.5-1.5h1z"/></svg>