<svg xmlns="http://www.w3.org/2000/svg" viewBox="0 0 512 512"><path d="M225 72q-30 20-45 37-13 15-13 25.5t10 14.5 34 15q7 3 13 0 34-17 70-5 8 3 13-3l27-29q8-9 6-14 0-3-3-4l-10-6q-12-7-15-12-5-7-17-20-15-10-33-10-13 0-26 6zm44 99q-27-1-45 9-12 6-14 18v3q0 2 1.5 3.5t2.5 1.5q27-7 55-6 20 0 35 4 3 1 5-1t2-4q-1-9-5-15-8-12-37-13zm60 64q-10-12-30-16-12-2-35-2h-2q-50 0-73 18-14 10-30 31-17 23-27 46-12 27-9 47 5 34 32 57 36 31 103 31 47 0 79-18 27-16 41-43 11-24 9-49-2-21-24-56-16-25-34-46zm31-71v-1q5-3 5.5-7.5T362 147t-11-3l-6 2-29 24 2 2q8 9 10 20 1 6 0 9l-1 4 48-9q6-3 7-7.5t-1-8-6-5-8 .5q-21 6-23.5 5.5T340 178v-1z"/></svg>