<svg xmlns="http://www.w3.org/2000/svg" viewBox="0 0 512 512"><path d="M359 211q2-5 6-8l-7-15q2-11-3-22t-23-17q-5-2-6-7-5-30-16-56-9-22-20.5-35.5t-20-14.5T253 60l-24 31-13 16-4 2q-5 3-8 7-5 7-7 16-5 29-4 42h-1q-18 4-36 26-14 16-16 35t9 32l4 21 32-1q12 8 37 12 6 2 13 2h4v32q-32 2-53 8.5T165 357l8 19-3 1 8 12 24 54q2 8 23 12l-1 1q0 3 5 0 16 3 32 3h8q42 0 43.5-3t-.5-5q4-2 6-4l13-30 26-40h-1q3-4 3-8t-4-9l1-3q0-9-21-15.5t-53-8.5l-1-31q31-2 53-9h7l11 3 3-6q9-4 15.5-15t6.5-29q-1-23-18-35zM194 386q32 14 73 14 11 0 23-1v13l-16 1q-52-4-76-15z"/></svg>