<svg xmlns="http://www.w3.org/2000/svg" viewBox="0 0 501 512"><path d="M404 181q-3-1-7-2-8-4-14-9-10-7-15.5-16.5T359 133q-3-9-3-17v-6l-15-9q-18-10-38-19-30-13-53-16l-15 3q-19 5-38 13-32 14-53 28v6q0 8-3 17-3 11-9.5 22T110 175q-8 4-14 6v13q1 17 4 36 5 27 14 53 12 34 30 66 20 34 41 60 17 21 34 36 12 10 23 17l8 4 8-4q11-7 23-17 17-15 34-36 21-26 41-60 33-58 44-119 5-30 4-49zm-71 150q-20 35-42 63-15 20-30 34l-11 10-11-10q-15-14-30-34-22-28-42-63t-31-71q-8-25-12-49l-1-19 12-8q14-9 20-19 13-20 15-40l10-7q12-8 28-14t31-7l11-1 12 1q14 1 30 7 26 10 38 21l3 12q4 16 12 28 6 10 20 19l13 8-2 19q-4 24-12 49-11 37-31 71zm-2-161q-7-11-11-26l-3-13-6-4q-10-6-24-12-22-8-37-7h-10q-13 2-27 8-23 8-30 15l-3 13q-4 15-11 26-8 13-21 21-6 4-11 5l2 17q3 22 10 46 10 33 28 65.5t37 57.5q13 19 26 32l10 9 10-9q13-14 27-32 19-25 36.5-57.5T351 259q7-24 10-46l2-17-5-2q-7-3-13-8-8-7-14-16zm-80 75q0 11-12 11h-71q-12 0-17-28-4-23 .5-25.5T165 191q11-11 16-20 9-15 9-31l8-5q9-6 17-9 12-6 25-7 4 0 7.5 2t3.5 7v117zm85 26q-2 7-8 23-10 23-21 42-15 26-30.5 45.5T256 401t-5-7V268q0-4 3-6t6-2h69q5 0 6.5 3.5t.5 7.5z"/></svg>