<svg xmlns="http://www.w3.org/2000/svg" viewBox="0 0 512 512"><path d="M109 237v115q0 30 10 49.5t31 32.5q17 11 44.5 17.5T254 458h1q34 0 62.5-7t44.5-19q19-13 28.5-32.5T401 352V237q0-16 3-27l3-7q4-6 4-13t-4-14l-2-3q-15-20-35-34 7-9 16-16l1-1q23-13 28-23 6-12 1-38-1-5-5-6t-8 0h-1q-32 3-41 19l-5 11q-10 23-22 36-40-15-79-13-16-1-38 2-40 7-72 26-24 14-40 37l-3 3q-3 6-3.5 13.5T102 203l3 7q4 11 4 27zm146-89q20 0 40 2l-26 11q-6 3-5 9 7 26 26 34t47 6q7 0 7-7 3-18 9-35 25 14 25 31 0 12-11 22t-31 17v92q0 7-4.5 11t-10.5 4-10.5-4-4.5-11v-84q-25 5-51 5-51 0-87.5-15T131 199.5t36.5-36.5 87.5-15z"/></svg>