<svg xmlns="http://www.w3.org/2000/svg" viewBox="0 0 512 512"><path d="M393 172H119q-6 0-10.5 4.5T104 187l19 259q1 7 6.5 11t15.5 4h222q9 0 15-4t7-11l19-259q0-6-4.5-10.5T393 172zm-64 210l-62 45q-2 2-4 .5t-2-3.5v-17q0-4-4-4-74-2-80-71 0-3 2.5-4.5t4.5 1.5q14 17 33 22 13 4 40 4 4 0 4-4v-18q0-2 2-3t4 0l62 45q1 2 1 4t-1 3zm-3-65q-14-17-33-22-13-4-40-4-4 0-4 4v17q0 3-2 4t-4 0l-62-46q-1-1-1-3t1-3l62-45q2-2 4-1t2 4v17q0 4 4 4 74 2 80 71 0 3-2.5 4t-4.5-1zm75-212l-92-15q-6-1-7-7l-4-17q-3-11-7-13t-12-2h-46q-8 0-12 1-5 4-7 14l-4 17q-1 6-7 7l-92 15q-9 2-15.5 8T89 128v14q0 4 3 7.5t8 3.5h312q5 0 8-3.5t3-7.5v-14q0-9-6.5-15t-15.5-8z"/></svg>