<svg xmlns="http://www.w3.org/2000/svg" viewBox="0 0 512 512"><path d="M450 177l-48-77q-2-3-4-3H181q-2 0-4 2.5t0 5.5l21 65q1 3-1 5.5t-6 1.5l-78-20q-2 0-3-2.5t0-4.5l28-45q2-3 .5-5.5T133 97h-26q-3 0-5 3l-41 77q-1 1-1 2v173q0 3 3 5l24 10q2 1 4.5-.5T94 362V192q0-2 2-4t5-1l93 25q3 1 3 5v190q0 2 1.5 3.5t4.5 1.5h21q2 0 3.5-1.5t1.5-3.5V220q0-2 1.5-3.5t4.5-1.5h179q2 0 3.5 1.5t1.5 3.5v186q0 2 1.5 4t3.5 2h22q2 0 3.5-1.5t1.5-4.5V179q0-1-1-2zM179 393V284q0-8-8-10l-46-13q-5-1-9 2t-4 8v102q0 6 6 9l46 21q5 2 10-1t5-9zm207-146q-1-3-4-3H257q-2 0-3 1.5t0 3.5l11 32q1 2 3 2h126q1 0 2-1.5t1-3.5zm-109 55h14q3 0 5.5 2t2.5 5v74q0 3-2.5 5t-5.5 2h-14q-3 0-5.5-2t-2.5-5v-74q0-3 2.5-5t5.5-2zm44 0h14q4 0 6 2t2 5v74q0 3-2 5t-6 2h-14q-3 0-5.5-2t-2.5-5v-74q0-3 2.5-5t5.5-2zm45 0h14q3 0 5.5 2t2.5 5v74q0 3-2.5 5t-5.5 2h-14q-4 0-6-2t-2-5v-74q0-3 2-5t6-2z"/></svg>