<svg xmlns="http://www.w3.org/2000/svg" viewBox="0 0 512 512"><path d="M123 188q0 13 5.5 21.5T148 228q11 8 17 16t5 18l-12 152q0 9 4 16t11.5 11 15.5 4 15-4 11.5-11 3.5-16l-11-152q-1-10 5-18t16-16q15-10 20.5-19t5.5-23V80q0-6-4.5-10t-10-3-8.5 4.5-3 9.5v54q0 5-3.5 9t-9 4.5-10-3.5-4.5-10V81q0-6-3.5-9.5t-9-4.5-10 3-4.5 10v55q0 5-3 9t-8.5 4.5-10-3.5-4.5-10V81q0-6-3.5-9.5t-9-4.5-10 3-4.5 10zm185 118l28 9q3 1 5 4t2 7l-7 88v7q1 7 6 13l3 3q5 5 11 6 8 3 16.5 1.5T387 437q4-3 4-7V94q0-11-6.5-19T370 67t-19 11q-13 14-23 41-9 22-14 45-15 62-13 132 0 7 7 10z"/></svg>