<svg xmlns="http://www.w3.org/2000/svg" viewBox="0 0 512 512"><path d="M388 55q-6-2-76-5-66-3-116-3-22 0-42.5 8.5T117 79q-23 23-42 55-7 11 5 21 18 14 74 58l-79 41q-6 3-9 8-4 7-2 19l19 141q2 9 8 16 9 11 27 12l199 14q13 2 26-2 10-4 18-10l6-5 55-53q11-10 15-20 2-7 3-21 2-38 5-131 12-90-15-134-14-23-40-32zM271 326q-8 7-30 24l-3 1q-3 2-6 0l-16 11 39 24q5 3 5 8.5t-5 8.5-10 0l-40-21-2 21h7q3 0 5 2t2 5-2 5.5-5 2.5h-7v9q0 4-3 7t-7 3-7-3-3-7v-9h-7q-3 0-5.5-2.5T168 410t2.5-5 5.5-2h7l-1-21-40 21q-4 3-8 1.5t-6-5-1-7.5 5-6l39-24-21-13-5 11-37-25 23-19q11-9 18.5-3.5T154 328l28 15 1-46q0-4 3-7t7-3 7 3 3 7l2 46 17-9q1-3 3-5l3-2 35-14q8-3 12 0 2 1 2 3 0 5-6 11v-1zm68-56l-251-9 83-42 241 6z"/></svg>