<svg xmlns="http://www.w3.org/2000/svg" viewBox="0 0 501 512"><path d="M141 217q42 22 68.5 21t51.5-28q-20-12-68-31-31-12-47-19-25-12-43-23 20-1 46 3 16 3 48 10 47 11 68 13-7-34-9-55-2-29 2-52 18 16 30 40 7 14 16 45l6 19q13-4 28-13 8-6 25-18.5t25-18.5q15-9 28-14-6 15-17 32-6 11-20 30-20 28-27 42 11 5 33 14 25 10 37 16 20 11 35 24-24 6-52 3-22-2-55-10 2 21 12 69 8 32 10 48 5 27 5 46-14-19-28-52-9-19-25-58.5T301 245q-26 22-27.5 56t22.5 73q-14 2-44 5-35 3-52 6-29 6-46 17l-5 3q-68 43-106 61l21-32q31-49 47-73 13-21 20-57 4-21 8-64zm98 56q-12-5-32-3h-12q-14 0-16 13l-12 57q39-3 54.5-9t18.5-20q2-9-1-38z"/></svg>