<svg xmlns="http://www.w3.org/2000/svg" viewBox="0 0 502 512"><path d="M207 58l40 28 18 37 31 13 36 35 5 18-17 17-16 45-28 33-27 88-9 43-14 33h-12l-10-12-25-55-25-76-17-16-27-40-4-15-13-4-13-17-3-16 6-10 33-36 19-22 13-18 27-36zm161 297q-9-9-13-20-2-7-2-18-1-8-2-11-4-8-8-8t-8 8q-2 2-2 10 0 12-2 18-4 12-13 21.5T298 368q-7 2-17 2.5t-13 1.5q-7 4-7 8t7 8q3 2 13 2.5t17 2.5q11 4 19.5 12.5T330 426q2 6 3 17 0 9 2 12 4 7 8 7t8-7q1-3 2-12 0-11 2-17 4-11 13-20.5t21-12.5q7-2 18-3 8-1 10-2 6-2 6-7t-6-9q-2-1-10-1-11-1-18-3-12-3-21-13z"/></svg>