<svg xmlns="http://www.w3.org/2000/svg" viewBox="0 0 512 512"><path d="M71 189q48 26 208 111 3 1 6-.5t4-4.5q2-42 19-78 21-45 58-62 4-2 3.5-6t-4.5-5Q177 68 176 68q-54 0-83 39-24 31-25 76 0 4 3 6zm415 151q-1-10-7.5-17t-15.5-9l-19-3v-48q0-3-4-5.5t-7-.5l-35 21q-3-10-5-23l50-29q-3-38-18.5-55t-39.5-6q-31 15-51 49-22 37-24 84-1 2 1 3l-12 4q-19 6-39 9h-1l-39-22q-4-2-7.5.5T209 299v17q0 3-2 5.5t-5 2.5l-31-1q-4 0-6-2l-24-27q-2-2-2-5v-34q0-4-4-6l-56-33q-4-3-7.5-.5T68 222v84q0 4 4 7l205 124q4 2 7.5 0t3.5-6v-55l10 3 11 5v46q0 4 3.5 5.5t5.5-1.5l13-9 5 22q1 10 9 16.5t18 6.5 17.5-6.5T390 447q7-46 14-55 4-4 17-9 17-8 45-15 9-3 14.5-11t5.5-17zm-33 6q-55 15-66 27.5T368 436q-1 5-5.5 5t-5.5-5q-4-24-8.5-39.5t-10-23T312 358q-7-3-17.5-6t-23.5-6q-4-1-4-5t4-5q12-2 23-5 37-9 45-20 5-6 9.5-23.5T358 242q0-4 4.5-4t5.5 4q2 18 5 31 2 11 4 19 4 14 9 19 9 12 39 19 13 4 27 6 5 1 5 5t-4 5z"/></svg>