<svg xmlns="http://www.w3.org/2000/svg" viewBox="0 0 512 512"><path d="M399 109q0-5-5-6L244 71q-3 0-5 1l-28 15q-3 2-3 5v122q0 3-3 5l-97 72v113q0 6 4.5 10t10.5 4h13q6 0 10.5-4t4.5-10v-60q0-3 2-5t5-1l93 22q5 1 5 6v66q0 6 4.5 10.5T271 447h12q6 0 10-4.5t4-10.5v-71q0-3 2-5l48-41q3-3 6.5-1.5t3.5 5.5v59q0 6 4.5 10.5T372 393h12q6 0 10.5-4.5T399 378V109zm-41 119q0 3-2.5 5t-5.5 1l-96-22q-5-1-5-6v-12q0-3 2.5-4.5t4.5-1.5l97 21q5 1 5 5v14zm0-57q0 3-2.5 5t-5.5 1l-96-19q-5-1-5-6v-14q0-3 2.5-4.5t4.5-1.5l97 20q4 1 4 6z"/></svg>