<svg xmlns="http://www.w3.org/2000/svg" viewBox="0 0 501 512"><path d="M378 137h-6q-7-9-10-11l-4 4q-6 5-13 7h-24q-6-3-18-16l-13-14q-7-7-18-11-7-3-15-4h-14q-8 1-15 4-11 4-18 11l-13 14q-12 13-18 16h-24q-7-2-12-7l-5-4-2 2q-4 3-8 9h-6q-7 0-14.5 8t-7.5 16v192q0 9 6.5 16t14.5 7h26q7 6 7 12.5t-9 9.5l-4-4q-6-5-14-5-17 0-17 20 0 9 10 15t30 6q7 0 17-6l9-6 39-42h70l40 42 9 6q10 6 16 6 21 0 31-6t10-15q0-20-17-20-9 0-14 5l-4 4-5-2q-5-3-5-7 1-7 7-13h24q9 0 15.5-6.5T399 353V160q0-7-7-15t-15-8h1zm-11 197q-1 7-4 9t-10 2H145q-6 0-8-3t-2-11V180q0-12 10-12h208q5 0 9 4t4 10v152h1zM200 204h100v43H200v-43zm0 75h100v40H200v-40z"/></svg>