<svg xmlns="http://www.w3.org/2000/svg" viewBox="0 0 512 512"><path d="M411 95H102q-14 0-24 10t-10 23v255q0 14 10 24t23 10h310q13 0 23-10t10-23V128q0-13-10-23t-23-10zm-8 265q0 8-5 13t-13 5h-32q-3-5-9-10-11-8-28-10v-23q9 2 14 1t7-5l1-3q10 7 24 2 6-2 11-9.5t4-19.5q0-16-13-24-2-1-2-2.5V272q7-11 1-23-3-7-15-11-3-1-4-4-4-29-17-50-11-18-19-19t-14 30l-1 1q-22 12-29 29-4 11-2 23 1 2-.5 4t-3.5 3q-12 2-24 16.5t-9.5 31T245 326q5 2 13 0l7-2 2 5q4 5 10 6 8 3 16 1v22q-16 2-27 10-6 5-8 10H126q-8 0-13-5t-5-13V154q0-7 5-12t12-5h261q7 0 12 5t5 13v205zM131 203q0 20 14 34t34 14 34-14 14-33.5-14-34-34-14.5-34 14.5-14 33.5z"/></svg>