<svg xmlns="http://www.w3.org/2000/svg" viewBox="0 0 502 512"><path d="M157 177H77q-4 0-7-3t-3-7V87q0-4 3-7t7-3h80q4 0 7 3t3 7v80q0 4-3 7t-7 3zm133 0h-80q-4 0-7-3t-3-7V87q0-4 3-7t7-3h80q4 0 7 3t3 7v80q0 4-3 7t-7 3zm133 0h-80q-4 0-7-3t-3-7V87q0-4 3-7t7-3h80q4 0 7 3t3 7v80q0 4-3 7t-7 3zM157 310H77q-4 0-7-3t-3-7v-80q0-4 3-7t7-3h80q4 0 7 3t3 7v80q0 4-3 7t-7 3zm133 0h-80q-4 0-7-3t-3-7v-80q0-4 3-7t7-3h80q4 0 7 3t3 7v80q0 4-3 7t-7 3zm133 0h-80q-4 0-7-3t-3-7v-80q0-4 3-7t7-3h80q4 0 7 3t3 7v80q0 4-3 7t-7 3zM157 443H77q-4 0-7-3t-3-7v-80q0-4 3-7t7-3h80q4 0 7 3t3 7v80q0 4-3 7t-7 3zm133 0h-80q-4 0-7-3t-3-7v-80q0-4 3-7t7-3h80q4 0 7 3t3 7v80q0 4-3 7t-7 3zm133 0h-80q-4 0-7-3t-3-7v-80q0-4 3-7t7-3h80q4 0 7 3t3 7v80q0 4-3 7t-7 3z"/></svg>