<svg xmlns="http://www.w3.org/2000/svg" viewBox="0 0 512 512"><path d="M393 123h-6q-4-6-8-10l-2-3q-8 9-19 13h-25q-7-3-20-18l-14-14q-11-11-28-15-9-2-15-2l-7 1q-9 0-17 4-11 4-19 12l-14 14q-13 15-19 18h-26q-11-4-18-13-4 3-11 13h-7q-7 0-15 8.5T95 149v206q0 10 7 17t15 7h28q8 7 8 15 0 3-5 7l-5 3-4-5q-7-5-15-5-19 0-19 21 0 10 11 16.5t33 6.5q7 0 18-6l9-7 43-46h75l43 46 9 7q11 6 18 6 22 0 33-6.5t11-16.5q0-21-19-21-9 0-15 5-3 2-4 5l-5-3q-5-4-5-7 0-8 7-15h26q10 0 17-7t7-17V148q0-8-8-16.5t-16-8.5zm-12 211q0 8-3 10.5t-12 2.5H143q-6 0-8.5-3.5T132 331V169q0-13 11-13h223q7 0 11 4.5t4 11.5v162zM203 195h107v46H203v-46zm0 81h107v42H203v-42zm-79 103h22q12 12 5 19t-15 3l-8-4q-8-4-16-1-5 2-7 7-5 16 6 26.5t28.5 11.5 27.5-9l51-53h76l52 53q9 10 26.5 9t28.5-11.5 6-26.5q-2-5-7-7-8-3-16 1l-8 4q-8 4-15-3t5-19h23q12 0 20.5-8.5T418 350V152q0-12-8.5-20.5T389 123h-1q0-6-6-10.5t-15-.5q-5 1-8 4-9 8-21.5 6T319 112q-9-14-23-24-19-14-40-14t-40 14q-14 10-23 24-5 8-18 10t-22-6q-3-3-7-4-9-4-15.5.5T124 123q-12 0-20.5 8.5T95 152v198q0 12 8.5 20.5T124 379zm259-51q0 7-5 11.5t-12 4.5H146q-6 0-11-4.5t-5-11.5V174q0-6 5-11t11-5h220q7 0 12 4.5t5 11.5v154zM210 195h92q4 0 6 2.5t2 5.5v30q0 3-2 5.5t-6 2.5h-92q-3 0-5-2.5t-2-5.5v-30q0-3 2-5.5t5-2.5zm0 81h92q4 0 6 2t2 6v26q0 3-2 5.5t-6 2.5h-92q-3 0-5-2.5t-2-5.5v-26q0-4 2-6t5-2z"/></svg>