<svg xmlns="http://www.w3.org/2000/svg" viewBox="0 0 512 512"><path d="M314 289l-7-18q-5-10-17-10h-3q0-14-2-28l2-2q8-5 14-12l2-4q4-5 6-10 5-11-.5-19T271 163q-2-1-1-4t3-2q34 7 43.5 4t11.5-16q2-5 2-11v-5q-1-9-4-18t-8-16l-2-4q-4-5-8-8-9-9-18.5-6T257 105q-2 2-4.5.5T251 101q17-29 17-39t-11-17l-10-4-5-2q-9-2-18-2t-18 2l-5 2-10 4q-11 7-11 16.5t17 39.5q1 3-1.5 4.5t-4.5-.5q-23-25-32.5-28T140 83q-4 3-8 8l-3 4q-5 7-7.5 16t-3.5 18v5q0 6 1 11 3 13 12.5 16t42.5-4q3-1 4 2t-2 4q-31 14-36.5 22t-.5 20q2 5 5 10l3 4q12 14 30 21l4 2q6 1 11 2 13 1 19-7t10-42q0-1 1-2t3-1 2 3q4 34 10 42t19 7l3-1q1 9 0 17l-33 1q-11 0-16 10l-7 18q-25 4-41.5 22.5T145 354t14 42.5 37 23.5l5 21q1 6 16 11 18 7 41.5 7t41.5-7q15-5 16-11l5-20q22-6 36.5-24.5T372 354t-17-42.5-41-22.5zm-67 36q-24 13-33 47l-1 3q0 2-2 2l-30-11q-3-1-3-3 0-28 16-44 9-8 22-13 1 0 2 1l29 13q2 0 2 2t-2 3z"/></svg>