<svg xmlns="http://www.w3.org/2000/svg" viewBox="0 0 512 512"><path d="M433 257l-121 73q-3 1-3 7v93q0 4 3.5 5.5t5.5-.5l123-93q3-2 3-5v-74q0-3-4-5.5t-7-.5zM288 431v-96q0-4-4-7l-64-36q-4-2-7.5.5T209 299v17q0 3-2 5.5t-5 2.5l-31-1q-4 0-6-2l-24-27q-2-2-2-5v-34q0-4-4-6l-56-33q-4-3-7.5-.5T68 222v84q0 4 4 7l205 124q4 2 7.5 0t3.5-6zm22-133q-1 2 1 3.5t4 .5l128-76q-3-38-18.5-55t-39.5-5q-31 14-51 48-22 37-24 84zM71 189q48 26 208 111 3 1 6-.5t4-4.5q2-42 19-78 21-45 58-62 4-2 3.5-6t-4.5-5Q177 68 176 68q-54 0-83 39-24 31-25 76 0 4 3 6z"/></svg>