<svg xmlns="http://www.w3.org/2000/svg" viewBox="0 0 512 512"><path d="M370 303q-5-4-10-5l-47-10-64-64q-5-5-3-12l10-31q3-8 11-11l25-6 41-40q8-8 5-18-10-36-37-56-19-13-42-18-9-1-15 5l-35 35q-5 5-5 13v10q1 4-1.5 6.5T196 105l-16 2q-6 0-11 5l-11 11-1-2q-5-5-14-3t-16 9-9 16 3 14l2 1-11 11q-4 4-5 11l-2 16q0 4-3 6t-6 2H85q-8-1-13 5l-36 36q-5 5-4 11 4 24 17 43 21 30 60 39 8 2 13-3l43-43 6-25q2-9 10-11l31-10q7-2 12 3l64 64 9 46q2 6 5 10l102 109 7 2q8 1 18-3 13-6 27-20 12-11 18-21 4-9 4.5-15t-1.5-11l-2-3z"/></svg>