<svg xmlns="http://www.w3.org/2000/svg" viewBox="0 0 512 512"><path d="M444 290q-18-4-29-10-9-4-11-8-7-11-12-65-1-9-7.5-15.5T368 185t-17 9q-15-33-26-49-15-21-26-32-20-19-36-19-14 0-42 19l-4 3q-23 15-37 35v1l-1-1q-7-11-12-65-1-9-7.5-15.5T144 64t-15.5 6-7.5 15q-6 58-12 66-1 2-8 6-12 6-34 12-8 1-12.5 7.5t-5 15 4 15T65 216q24 7 36 15 7 4 8 6 6 11 12 58 1 10 7.5 16t15.5 6q4 0 8-2 19 37 26 51 5 9 15 18 7 5 20 13l7 4q16 10 27 13 15 5 28.5.5T313 395q13-9 20-12 4-2 7-6 3 15 6 39 1 10 7.5 16t15.5 6 15.5-6 7.5-16q6-47 12-57 2-3 11-8 13-7 32-14 8-3 12-10t3.5-15.5T457 297t-13-7zm-300-11q-1 0-1-2-5-44-13-56v-1q-8-13-47-26-1 0-1-2t1-2q39-10 47-23h1q6-12 12-64 1-1 1.5-1t.5 1q4 51 13 64 9 15 46 23 1 0 1 2t-1 2q-38 14-46 26v1q-8 11-13 56 0 2-1 2zm285 36q-38 14-46 26v1q-8 11-13 56 0 2-1 2t-1-2q-5-44-12-56l-1-1q-8-13-47-26-1 0-1-2t1-2q39-10 47-23h1q6-12 12-64 1-1 1.5-1t.5 1q4 51 13 64 9 15 46 23 1 0 1 2t-1 2z"/></svg>