<svg xmlns="http://www.w3.org/2000/svg" viewBox="0 0 512 512"><path d="M231 149q1 4 3 5h44l2-1q1-1 2-4l18-77v-3q0-3-4-6.5T282 57q-26-5-52 0-10 2-14 5.5t-4 6.5v3zm25 311q40 0 73.5-16.5t53-44T402 339q0-35-22-64t-59-44v-98l9-9q9-10 10-16t-4-12-13-6h-12l-17 64v98q9 2 18 6 16 6 30 18l4 3H234l-10 3q-11 4-21 10-14 9-22 20-10 13-10 29 0 38 10 60 5 12 11 16-12-6-22-14-32-27-32-64t32-63q13-11 29-18 9-4 18-6v-98l-17-64h-12q-7 0-12.5 6t-4.5 12 10 16l9 9v99q-37 15-58.5 43.5T110 338t19.5 61.5 53 44T256 460z"/></svg>