<svg xmlns="http://www.w3.org/2000/svg" viewBox="0 0 512 512"><path d="M105 399q27 28 59 35 2 1 2 2v18q0 2 1.5 3.5t4.5 1.5l25-4q5 0 5-5v-6q0-1 .5-1.5t1.5-.5q22 2 34-9 4-4 3-10l-3-16 3-15q0-2 2-2 51-5 84-31 36-29 36-77 0-26-7-51 0-1 .5-1.5t1.5-.5q28 4 50-10 27-17 32-52t-15.5-67.5T370 56t-61 6q-19 12-27.5 33t-5.5 45q0 1-.5 2t-2.5 0q-31-12-64-12-111 0-111 142 0 13 2 25 1 2-1 2l-22 10q-3 2-5 11.5t0 23.5q2 24 33 55zm73-48q7 0 12.5 7t5.5 17-5.5 17-13 7-13-7-5.5-17 5.5-17 13.5-7zm-49-4q5 0 8.5 7t3.5 17-3.5 17-8.5 7-8.5-7-3.5-17 3.5-17 8.5-7z"/></svg>