<svg xmlns="http://www.w3.org/2000/svg" viewBox="0 0 512 512"><path d="M411 95H102q-14 0-24 10t-10 23v255q0 14 10 24t23 10h310q13 0 23-10t10-23V128q0-13-10-23t-23-10zm-8 265q0 8-5 13t-13 5h-8v-98q0-3-2.5-5.5T368 272h-9q-4 0-6.5 2.5T350 280v98h-81v-98q0-3-2.5-5.5T261 272h-10q-3 0-5.5 2.5T243 280v98h-81v-99q0-3-2.5-5.5T153 271h-9q-4 0-6.5 2.5T135 279v99h-9q-8 0-13-5t-5-13V154q0-7 5-12t12-5h10v63q0 4 2.5 6.5t6.5 2.5h9q4 0 6.5-2.5t2.5-6.5v-63h81v63q0 4 2.5 6.5t5.5 2.5h10q3 0 5.5-2.5t2.5-6.5v-63h81v63q0 4 2.5 6.5t6.5 2.5h9q4 0 6.5-2.5t2.5-6.5v-63h8q8 0 13 5t5 12v206zM197 177h10q4 0 6.5 2.5t2.5 6.5v109q0 3-2.5 5.5T207 303h-10q-3 0-5.5-2.5T189 295V186q0-4 2.5-6.5t5.5-2.5zm108 0h10q3 0 5.5 2.5t2.5 6.5v109q0 3-2.5 5.5T315 303h-10q-4 0-6.5-2.5T296 295V186q0-4 2.5-6.5t6.5-2.5z"/></svg>