<svg xmlns="http://www.w3.org/2000/svg" viewBox="0 0 512 512"><path d="M108 293l15-15q11 7 24 11v22q0 6 4.5 10.5T162 326h17q6 0 10-4.5t4-10.5v-22q14-3 25-10l16 16q4 4 10.5 4t10.5-4l11-11q5-5 5-11t-5-10l-15-16q7-11 11-24h22q6 0 10.5-4.5T299 208v-16q0-6-4.5-10.5T284 177h-22q-3-13-10-25l16-16q4-4 4-10t-4-11l-11-11q-5-5-11-5t-10 5l-16 15q-11-7-24-11V86q0-6-4.5-10.5T181 71h-16q-7 0-11 4.5T150 86v22q-13 3-25 10l-16-16q-4-4-10-4t-11 4l-11 12q-5 4-5 10t5 11l15 15q-7 11-11 24H59q-6 0-10.5 4.5T44 189v17q0 6 4.5 10t10.5 4h22q3 14 10 25l-16 16q-4 4-4 10.5t4 10.5l12 11q4 5 10 5t11-5zm64-137q17 0 29.5 12.5t12.5 30-12.5 30-30 12.5-30-12.5-12.5-30 12.5-30T172 156zm55 201h-31q-4 0-7 3t-3 7v68q0 6 5 9 2 2 5 2h68q4 0 7-3.5t3-7.5v-31l118-155q2-2 2-5t-2-5q-2-2-5-2t-5 2zm233-194q-2-1-4.5 0t-4.5 4l-86 174-28 14q-4 2-5.5 6.5t.5 7.5l30 61q2 4 6.5 5.5t7.5-.5l61-30q4-2 5.5-6t-.5-8l-14-28 37-191q1-3-.5-5.5T460 163z"/></svg>